<?xml version="1.0" encoding="UTF-8"?>
<svg version="1.1" xmlns="http://www.w3.org/2000/svg" width="917" height="882">
<path d="M0 0 C1.72696921 -0.00352835 1.72696921 -0.00352835 3.48882669 -0.00712797 C6.68994006 -0.01264501 9.8910191 -0.01369047 13.09213598 -0.01285056 C16.57288725 -0.01302028 20.05362958 -0.01892889 23.53437638 -0.02409142 C30.44064762 -0.03341394 37.34691244 -0.03733889 44.25318918 -0.03961039 C52.52487221 -0.04257342 60.79654675 -0.05127149 69.06822533 -0.06002467 C89.06308705 -0.08086722 109.05795025 -0.09133903 129.0528203 -0.10015428 C138.51380631 -0.10436153 147.97479168 -0.10958345 157.43577715 -0.11483881 C189.82746834 -0.13272987 222.21915971 -0.147725 254.6108551 -0.155159 C256.64439492 -0.15563375 258.67793474 -0.15610964 260.71147455 -0.15658666 C262.22414311 -0.15694122 262.22414311 -0.15694122 263.76737063 -0.15730295 C268.87658719 -0.15850414 273.98580374 -0.15971959 279.09502029 -0.16094494 C280.10895719 -0.16118509 281.12289408 -0.16142524 282.16755633 -0.16167267 C315.03139152 -0.16956311 347.89519059 -0.19298925 380.75901001 -0.22550088 C415.51119128 -0.25981779 450.26335141 -0.27951192 485.0155499 -0.28280324 C488.83251906 -0.28322077 492.64948822 -0.28370033 496.46645737 -0.28422642 C497.40629023 -0.28434961 498.34612309 -0.2844728 499.31443573 -0.28459973 C514.4240778 -0.28692956 529.53367784 -0.30257752 544.64330494 -0.32306826 C559.83963156 -0.34334914 575.03590783 -0.34879289 590.23224548 -0.33929763 C599.25344592 -0.3340913 608.27447848 -0.33991898 617.29565469 -0.3618323 C623.33169086 -0.37538264 629.36761202 -0.37422619 635.40364945 -0.36143034 C638.83638362 -0.35456167 642.26879785 -0.35376671 645.70150289 -0.37099043 C683.93559464 -0.52742834 713.39074386 11.34597594 740.86015701 38.27484608 C759.09911642 57.50465439 770.0408208 85.30678393 769.93383217 111.60437584 C769.93733824 112.71080666 769.94084432 113.81723748 769.94445664 114.9571965 C769.95374104 118.65497304 769.94885488 122.35259107 769.9439888 126.05037403 C769.94772655 128.73228943 769.95224911 131.4141932 769.95771945 134.09610456 C769.96800076 139.92228671 769.97086649 145.74843564 769.96880722 151.57462597 C769.96575236 160.23884696 769.97409199 168.9030313 769.98455647 177.56724515 C770.00388405 193.94422961 770.00952424 210.32120154 770.01067059 226.69819606 C770.01159024 239.34795414 770.01570988 251.99770731 770.02207184 264.6474638 C770.02386698 268.29083663 770.0256466 271.93420946 770.02742159 275.5775823 C770.02808474 276.93628114 770.02808474 276.93628114 770.02876128 278.32242845 C770.04106743 303.79649417 770.04896264 329.27055818 770.04807472 354.744627 C770.04804356 355.70478892 770.04801241 356.66495084 770.04798031 357.65420858 C770.04781409 362.52051974 770.04761601 367.3868309 770.04741089 372.25314207 C770.04735105 373.70279671 770.04735105 373.70279671 770.04729001 375.18173732 C770.04720914 377.13610743 770.04712554 379.09047754 770.04703923 381.04484766 C770.04581401 411.44436822 770.06082241 441.84384414 770.08818436 472.24335194 C770.11892576 506.41142218 770.13611559 540.5794631 770.13425791 574.74754804 C770.13410866 578.39312136 770.13401124 582.03869468 770.13394928 585.684268 C770.13391432 587.03067676 770.13391432 587.03067676 770.13387865 588.40428571 C770.13381718 602.83022342 770.14657253 617.25612229 770.16381381 631.68204847 C770.18079274 646.18884155 770.18272647 660.695578 770.16959517 675.20237554 C770.16222095 683.81257092 770.16581807 692.4225939 770.18547985 701.03277091 C770.19752185 706.79467107 770.19484217 712.55644701 770.18053885 718.31834158 C770.17281113 721.59443 770.17336574 724.87012265 770.18745355 728.14619935 C770.33511698 764.93558325 759.17790384 794.22123281 733.22343826 820.63031483 C713.32010127 839.72917563 685.89685427 851.30657443 658.35312653 851.26844215 C656.62615731 851.2719705 656.62615731 851.2719705 654.86429983 851.27557012 C651.66318647 851.28108716 648.46210742 851.28213263 645.26099055 851.28129272 C641.78023927 851.28146243 638.29949694 851.28737105 634.81875014 851.29253358 C627.91247891 851.30185609 621.00621409 851.30578104 614.09993735 851.30805254 C605.82825431 851.31101557 597.55657977 851.31971364 589.2849012 851.32846682 C569.29003948 851.34930937 549.29517628 851.35978118 529.30030623 851.36859643 C519.83932022 851.37280368 510.37833485 851.3780256 500.91734938 851.38328096 C468.52565819 851.40117202 436.13396682 851.41616715 403.74227142 851.42360115 C401.70873161 851.42407591 399.67519179 851.42455179 397.64165197 851.42502881 C396.12898342 851.42538338 396.12898342 851.42538338 394.5857559 851.4257451 C389.47653934 851.42694629 384.36732278 851.42816174 379.25810623 851.42938709 C378.24416934 851.42962724 377.23023245 851.42986739 376.18557019 851.43011482 C343.321735 851.43800527 310.45793593 851.46143141 277.59411651 851.49394304 C242.84193525 851.52825995 208.08977511 851.54795407 173.33757663 851.55124539 C169.52060746 851.55166292 165.70363831 851.55214248 161.88666916 851.55266857 C160.47691987 851.55285336 160.47691987 851.55285336 159.03869079 851.55304188 C143.92904873 851.55537171 128.81944869 851.57101967 113.70982159 851.59151042 C98.51349497 851.6117913 83.31721869 851.61723504 68.12088105 851.60773978 C59.0996806 851.60253345 50.07864804 851.60836114 41.05747184 851.63027446 C35.02143567 851.64382479 28.98551451 851.64266835 22.94947708 851.6298725 C19.51674291 851.62300383 16.08432868 851.62220886 12.65162364 851.63943259 C-25.58246812 851.79587049 -55.03761733 839.92246622 -82.50703049 812.99359608 C-100.7459899 793.76378776 -111.68769427 765.96165822 -111.58070564 739.66406631 C-111.58421172 738.5576355 -111.58771779 737.45120468 -111.59133011 736.31124565 C-111.60061451 732.61346911 -111.59572836 728.91585109 -111.59086227 725.21806812 C-111.59460002 722.53615273 -111.59912258 719.85424896 -111.60459292 717.17233759 C-111.61487424 711.34615544 -111.61773997 705.52000651 -111.61568069 699.69381618 C-111.61262583 691.0295952 -111.62096546 682.36541086 -111.63142995 673.701197 C-111.65075753 657.32421254 -111.65639772 640.94724062 -111.65754406 624.57024609 C-111.65846372 611.92048801 -111.66258336 599.27073484 -111.66894531 586.62097836 C-111.67074045 582.97760553 -111.67252008 579.33423269 -111.67429507 575.69085985 C-111.67473716 574.78506062 -111.67517926 573.87926139 -111.67563475 572.9460137 C-111.6879409 547.47194799 -111.69583612 521.99788397 -111.6949482 496.52381516 C-111.69491704 495.56365323 -111.69488588 494.60349131 -111.69485378 493.61423358 C-111.69468757 488.74792241 -111.69448949 483.88161125 -111.69428436 479.01530009 C-111.69424447 478.04886366 -111.69420458 477.08242722 -111.69416348 476.08670484 C-111.69408261 474.13233472 -111.69399901 472.17796461 -111.6939127 470.2235945 C-111.69268749 439.82407394 -111.70769588 409.42459801 -111.73505783 379.02509022 C-111.76579924 344.85701997 -111.78298907 310.68897905 -111.78113139 276.52089411 C-111.78098213 272.87532079 -111.78088471 269.22974748 -111.78082275 265.58417416 C-111.78079945 264.68656831 -111.78077614 263.78896247 -111.78075212 262.86415645 C-111.78069065 248.43821873 -111.793446 234.01231986 -111.81068728 219.58639369 C-111.82766622 205.0796006 -111.82959994 190.57286415 -111.81646864 176.06606662 C-111.80909442 167.45587123 -111.81269155 158.84584825 -111.83235332 150.23567124 C-111.84439533 144.47377108 -111.84171565 138.71199515 -111.82741232 132.95010057 C-111.81968461 129.67401215 -111.82023921 126.39831951 -111.83432703 123.1222428 C-111.98199045 86.3328589 -100.82477732 57.04720934 -74.87031174 30.63812733 C-54.96697474 11.53926653 -27.54372774 -0.03813228 0 0 Z " fill="#FEFEFE" transform="translate(127.32343673706055,13.865778923034668)"/>
<path d="M0 0 C0.65434025 1.73400167 1.30182993 3.47187705 1.875 5.234375 C3.93654211 8.46985081 7.70328235 8.89156058 11.2109375 9.98828125 C18.40889632 12.59930553 22.61304674 18.37897678 26 25 C29.96462915 33.52119945 31.95989439 41.91630959 32.75390625 51.25 C32.82455395 53.02513699 32.82455395 53.02513699 34 54 C34.08553653 56.15093075 34.1081761 58.3044021 34.10546875 60.45703125 C34.11895334 61.8118646 34.13398157 63.16668329 34.15039062 64.52148438 C34.17297846 66.64984122 34.18771378 68.77657255 34.17504883 70.9050293 C34.13280589 80.58322939 35.08955653 88.89946737 41 97 C51.84311678 105.97010658 64.97406596 107.18321779 78.5 107.125 C79.84771484 107.13080078 79.84771484 107.13080078 81.22265625 107.13671875 C90.5304545 107.47888832 90.5304545 107.47888832 99.1015625 104.6875 C104.69121176 98.49588851 109.01634566 91.91725775 112.9375 84.5625 C117.70454121 75.73235889 122.85205427 66.88105938 132 62 C134.7734375 61.8203125 134.7734375 61.8203125 137 62 C136.93039062 62.85722656 136.86078125 63.71445312 136.7890625 64.59765625 C136.26817092 71.16915758 136.26817092 71.16915758 138.3359375 77.2109375 C139.41830099 78.33395314 140.52571329 79.43352595 141.66015625 80.50390625 C143 82 143 82 143.4375 85.375 C143 88 143 88 142 89 C141.41585298 92.37306618 141.41585298 92.37306618 142 96 C143.96722008 97.38123963 145.96868328 98.71488126 148 100 C149.25 102.9375 149.25 102.9375 149 106 C145.30122109 110.08812406 141.25135409 111.86571029 136.23828125 113.98046875 C127.54397039 117.94070459 123.26363936 124.26435548 119.25 132.6875 C115.32229756 140.76560966 110.00831946 147.8316993 103.875 154.375 C100.63082856 158.02134145 98.76460049 162.35089041 96.6862793 166.71484375 C94.13783082 171.96559332 91.15342344 176.85753547 87 181 C86.34 181 85.68 181 85 181 C84.67 181.99 84.34 182.98 84 184 C76.36752131 191.20420333 66.93651494 195.95472296 57.65551758 200.66186523 C51.17964853 204.02877051 47.09396588 206.86987711 43.7265625 213.51171875 C42.91008277 216.30794234 42.58492515 218.90853536 42.375 221.8125 C42.26285156 223.27623047 42.26285156 223.27623047 42.1484375 224.76953125 C42.07496094 225.87361328 42.07496094 225.87361328 42 227 C41.67 227 41.34 227 41 227 C40.505 230.96 40.505 230.96 40 235 C39.67 235 39.34 235 39 235 C38.95101562 233.87722656 38.90203125 232.75445312 38.8515625 231.59765625 C38.09989632 215.91078599 36.65367793 204.87010088 24.89453125 193.55859375 C21.43580729 190.50128714 17.80859744 187.72384923 14.11303711 184.96582031 C-3.00459277 172.04553051 -22.06674145 153.83955686 -26.61328125 132.0625 C-29.60592405 108.36318733 -21.78597695 87.59268165 -7.46435547 69.02026367 C0.70904291 58.16512104 0.15226031 45.99287962 0 33 C-1.32 33 -2.64 33 -4 33 C-4.33 33.99 -4.66 34.98 -5 36 C-9.52067669 36.36654135 -9.52067669 36.36654135 -11.59375 34.78125 C-13.28974509 32.63298955 -13.68317892 30.98928112 -14.1875 28.3125 C-14.34605469 27.50425781 -14.50460937 26.69601562 -14.66796875 25.86328125 C-14.77753906 25.24839844 -14.88710938 24.63351562 -15 24 C-16.2375 24 -17.475 24 -18.75 24 C-21.5 24 -24.25 24 -27 24 C-25.98133451 20.66618566 -25.37166476 19.25381984 -22.4375 17.25 C-19.60175907 14.63239299 -19.71789311 14.15771467 -19.5625 10.5 C-19.421875 8.1171875 -19.421875 8.1171875 -19 6 C-16.3125 3.625 -16.3125 3.625 -13 2 C-12.030625 1.401875 -11.06125 0.80375 -10.0625 0.1875 C-6.11755003 -1.34217448 -4.00912655 -1.36159015 0 0 Z " fill="#FDFDFD" transform="translate(481,269)"/>
<path d="M0 0 C2.94977552 2.00310338 5.41518844 4.55446513 8 7 C10.29084313 9.04612818 12.61023128 11.05796405 14.9375 13.0625 C15.54029785 13.58263672 16.1430957 14.10277344 16.76416016 14.63867188 C21.27111966 18.48259182 25.92101442 21.93648489 31 25 C30.36771484 24.07767578 30.36771484 24.07767578 29.72265625 23.13671875 C29.17480469 22.32847656 28.62695312 21.52023438 28.0625 20.6875 C27.24458984 19.48673828 27.24458984 19.48673828 26.41015625 18.26171875 C23.85607227 14.16527934 23.66039069 10.75453038 24 6 C25.125 4.0625 25.125 4.0625 27 3 C29.625 2.375 29.625 2.375 33 3 C35.12873214 4.41915476 37.03118809 6.03669751 38.99609375 7.67578125 C42.9160672 10.70879061 47.05001199 13.31178761 51.25 15.9375 C52.49547607 16.71758423 52.49547607 16.71758423 53.76611328 17.51342773 C58.51407182 20.47544413 63.28453083 23.3992424 68.0625 26.3125 C73.53431519 29.67287074 78.82296138 33.20141645 84 37 C85.00675781 37.73863281 86.01351562 38.47726563 87.05078125 39.23828125 C99.67495203 48.64961679 113.85108069 59.6338596 121 74 C120.6875 76.3125 120.6875 76.3125 120 78 C119.61521484 77.19949219 119.61521484 77.19949219 119.22265625 76.3828125 C109.48077782 57.42387063 90.75649058 47.29014953 73 37 C71.69892236 36.23618173 70.39811324 35.47190574 69.09765625 34.70703125 C62.22019871 30.69092165 55.21639932 27.02670996 48.05859375 23.54296875 C45.28416913 22.1433548 42.63970337 20.63691103 40 19 C47.14106061 28.07294174 54.59986484 36.49169024 63.625 43.75 C66.35712825 46.09024723 66.91465086 46.59653136 67.6875 50.25 C67 53 67 53 65.875 54.9375 C62.91027718 56.6175096 61.27298601 55.89263255 58 55 C44.04946252 50.48500047 30.90233679 42.41648863 19 34 C24.21771302 40.79251368 30.56170835 45.68702586 37.35986328 50.76074219 C71.35582774 76.44748163 71.35582774 76.44748163 74 93 C74.78548895 101.48328062 70.89952139 105.98905059 65.8125 112.25 C64.20908583 114.16729622 62.60491232 116.08395766 61 118 C59.54074454 119.81175767 58.08240207 121.6242511 56.625 123.4375 C49.17775575 132.50089969 41.70372606 140.62363604 32.49609375 147.9375 C24.78652974 154.30784397 20.00580688 162.47482671 15 171 C14.57460938 171.69609375 14.14921875 172.3921875 13.7109375 173.109375 C12.00961664 175.94058071 10.78609584 178.61106352 9.69140625 181.73828125 C8.09728349 186.05332999 5.86927121 189.61507842 3.25 193.375 C2.8060791 194.02637939 2.3621582 194.67775879 1.90478516 195.34887695 C0.61268174 197.23936678 -0.69073034 199.12136962 -2 201 C-2.63679688 201.91394531 -3.27359375 202.82789063 -3.9296875 203.76953125 C-5.04440777 205.35942029 -6.16279772 206.94674384 -7.28515625 208.53125 C-9.2655139 211.38224324 -11.16111582 214.2833064 -13.0625 217.1875 C-15.66866381 221.12951179 -18.3185783 224.78450722 -21.578125 228.20703125 C-23.18844719 230.13900291 -23.18844719 230.13900291 -24.76171875 233.15625 C-27.27747735 237.65797804 -30.38220941 241.63910883 -33.5625 245.6875 C-34.17947754 246.47552002 -34.79645508 247.26354004 -35.43212891 248.07543945 C-44.1772566 259.13717968 -53.43518229 269.08560074 -64.75 277.5625 C-69.0081867 280.83689874 -71.72942284 283.82355709 -73.75 288.875 C-74.74806545 297.35855633 -73.4796983 304.14220336 -68.421875 311.203125 C-66.69688209 313.23892744 -64.90047581 315.12776905 -63 317 C-62.46503906 317.556875 -61.93007812 318.11375 -61.37890625 318.6875 C-54.87814246 324.92324464 -44.61904976 328.45317537 -35.609375 328.3515625 C-28.37989857 327.37753124 -20.67254461 324.75088508 -14.5234375 320.859375 C-10.58781972 318.78248579 -7.53061525 318.38303446 -3.1875 318.5 C-2.09477783 318.51595215 -2.09477783 318.51595215 -0.97998047 318.53222656 C10.37589268 318.91503603 21.78894156 321.67521503 32.25 326.0703125 C35.52627258 327.17791602 38.79642937 327.7857954 42.18994141 328.43310547 C45.12235771 329.02468415 48.01519462 329.71474926 50.91796875 330.4375 C51.94599609 330.69273437 52.97402344 330.94796875 54.03320312 331.2109375 C56.11769177 331.73238234 58.20105605 332.25834489 60.28320312 332.7890625 C74.24964059 336.23498726 87.37390272 337.19035597 101.65957642 336.8644104 C116.50822346 336.55949643 129.85348561 337.02114246 144 342 C145.87254072 342.57063341 147.74712308 343.13468039 149.625 343.6875 C150.36234375 343.92210937 151.0996875 344.15671875 151.859375 344.3984375 C154.18666203 345.05245612 156.48888166 345.42982064 158.875 345.8125 C175.47819978 348.93379664 187.33192841 362.02921134 197 375 C204.66950263 386.29268145 210.84004297 397.50576636 211.7421875 411.3125 C212.72840097 421.59302826 217.82683716 429.95284129 224 438 C217.32018737 435.21674474 212.84299618 427.78963901 209.8203125 421.4140625 C208.74083189 418.23730529 208.21021142 415.05274488 207.625 411.75 C205.58581683 400.2710506 199.95285616 391.1871778 193 382 C192.35933594 381.14277344 191.71867187 380.28554688 191.05859375 379.40234375 C186.83317748 373.92005219 182.46492675 369.24516278 177 365 C176.17371094 364.30648438 175.34742188 363.61296875 174.49609375 362.8984375 C166.15863123 356.52068453 158.30731957 355.49190155 148.20458984 354.30322266 C144.29232358 353.76512357 140.53209158 352.71922463 136.73828125 351.6484375 C129.57669134 349.95254032 122.5622265 349.88565202 115.24609375 349.97265625 C113.1529965 349.98531184 111.05989745 349.9976721 108.96679688 350.00976562 C105.71112251 350.03443538 102.4555457 350.06231357 99.19995117 350.09594727 C86.92888224 350.21448577 75.11842308 350.13224407 63 348 C61.98591064 347.83781982 60.97182129 347.67563965 59.92700195 347.50854492 C57.09234895 347.05070301 54.26479209 346.56364299 51.4375 346.0625 C50.45587891 345.88920166 49.47425781 345.71590332 48.46289062 345.53735352 C27.95873056 341.87758367 27.95873056 341.87758367 22.6171875 339.484375 C18.78408531 337.9113957 15.20784206 337.23650634 11.125 336.8125 C10.41811035 336.73717041 9.7112207 336.66184082 8.98291016 336.58422852 C6.98950591 336.38048784 4.99478112 336.18978687 3 336 C2.15953125 335.87882812 1.3190625 335.75765625 0.453125 335.6328125 C-6.02134094 335.02431006 -11.07176388 338.243625 -16.5703125 341.2734375 C-28.2279011 347.14206411 -44.28423447 347.0611838 -56.625 343.0625 C-70.71591012 337.0957749 -81.82929222 326.33303479 -89 313 C-89.598125 311.906875 -90.19625 310.81375 -90.8125 309.6875 C-94.43794378 301.4825483 -94.53157617 290.13253388 -91.9765625 281.5703125 C-87.48529566 272.01706536 -80.73061982 264.81393995 -72.1875 258.75 C-52.64008016 244.56514667 -39.31708831 220.19273055 -25.83276367 200.64550781 C-24.01311083 198.01892486 -22.17601606 195.40526967 -20.3359375 192.79296875 C-17.47842511 188.71316317 -14.70957875 184.59434988 -12.0625 180.375 C-11.6399292 179.70186768 -11.2173584 179.02873535 -10.78198242 178.33520508 C-7.84759142 173.57558422 -5.25703178 168.71407222 -2.8125 163.6875 C3.44271896 150.83411904 10.54455934 139.87409402 22.1875 131.3125 C32.06896949 124.03872082 40.29264686 114.73346351 47.5625 104.8828125 C48.93964982 103.07904562 50.427659 101.50715832 52 99.875 C54.34201122 97.12486803 54.34201122 97.12486803 53.8671875 93.65234375 C50.73856037 80.47546821 34.94149563 70.35769735 24.57324219 62.54980469 C20.33645462 59.33454517 16.61926949 55.88138929 13 52 C12.195625 51.21625 11.39125 50.4325 10.5625 49.625 C9.2940625 48.325625 9.2940625 48.325625 8 47 C7.41605469 46.42378906 6.83210938 45.84757812 6.23046875 45.25390625 C-2.51443389 36.12954037 -13 20.59730851 -13 7.5625 C-10.63109871 1.49219045 -6.32440375 -0.9369487 0 0 Z " fill="#434345" transform="translate(271,104)"/>
<path d="M0 0 C0.74765625 0.27714844 1.4953125 0.55429687 2.265625 0.83984375 C12.04612174 5.01773311 19.58850595 13.50283008 24 23 C28.70316089 35.13223545 29.28719287 47.52740702 29.1953125 60.38671875 C29.19157368 61.94041256 29.18873082 63.49410876 29.18673706 65.04780579 C29.17916894 69.10015589 29.15958068 73.15235836 29.1373291 77.20465088 C29.1167221 81.35451257 29.10770386 85.50439856 29.09765625 89.65429688 C29.07632701 97.76959835 29.0422755 105.88478071 29 114 C26.28996573 114.1358035 23.58681059 114.23444624 20.875 114.3125 C20.11445312 114.35439453 19.35390625 114.39628906 18.5703125 114.43945312 C14.454116 114.52816426 11.79439174 114.29068846 8.5 111.6875 C5.70473408 108.68258914 5.18799187 107.04182528 5 103 C4.34 103 3.68 103 3 103 C2.62875 103.91072266 2.62875 103.91072266 2.25 104.83984375 C0.77452321 107.38965208 -0.42709409 108.17037412 -3 109.5625 C-3.70125 109.95566406 -4.4025 110.34882812 -5.125 110.75390625 C-13.83731424 114.53003158 -21.77717766 115.55250126 -31.25 115.5 C-32.44351074 115.49427979 -33.63702148 115.48855957 -34.86669922 115.48266602 C-47.99072715 115.21674732 -58.2970189 112.2619365 -68 103 C-68.56203125 102.46632813 -69.1240625 101.93265625 -69.703125 101.3828125 C-74.21187287 96.62357864 -76.70890835 91.08403601 -79 85 C-79.39574219 83.95585938 -79.79148437 82.91171875 -80.19921875 81.8359375 C-85.92536988 64.0346396 -85.72250182 38.99033379 -77.15234375 22.01171875 C-76.58193359 21.01591797 -76.58193359 21.01591797 -76 20 C-75.56816406 19.24332031 -75.13632812 18.48664062 -74.69140625 17.70703125 C-68.08153642 7.01301421 -58.17037192 0.17487963 -46 -3 C-30.82270749 -5.3177992 -14.39306695 -5.83447771 0 0 Z " fill="#95734D" transform="translate(588,594)"/>
<path d="M0 0 C11.01800934 8.02787111 17.94184489 19.97456393 20.2578125 33.484375 C22.57030088 55.0437246 22.10407131 77.57959368 8.68359375 95.5625 C-0.19240529 105.31452875 -12.56708665 110.21100277 -25.5324707 111.16333008 C-43.43986287 111.88869606 -59.26950946 111.83805323 -73.9140625 100.22265625 C-81.25671902 93.31538161 -85.60875351 85.5493944 -88.3515625 75.9296875 C-88.64933594 75.01445313 -88.94710937 74.09921875 -89.25390625 73.15625 C-94.7268753 53.9378057 -92.62750226 31.45489113 -83.16015625 13.95703125 C-76.97841861 3.60963023 -67.08212581 -3.27686138 -55.46191406 -6.61279297 C-37.89361999 -10.90862991 -15.38750819 -9.94206293 0 0 Z " fill="#95734D" transform="translate(273.3515625,598.0703125)"/>
<path d="M0 0 C3.04263267 -0.10845027 6.08136204 -0.18752063 9.125 -0.25 C9.9809375 -0.28351562 10.836875 -0.31703125 11.71875 -0.3515625 C17.34427171 -0.43810899 20.5870133 0.16378664 25 4 C27.56890839 6.99015412 28.73980274 9.71715104 29.8671875 13.48046875 C30.19283691 14.55345215 30.51848633 15.62643555 30.85400391 16.73193359 C31.19093262 17.87227051 31.52786133 19.01260742 31.875 20.1875 C32.22868652 21.36135254 32.58237305 22.53520508 32.94677734 23.74462891 C33.9734611 27.16049817 34.98890835 30.57948737 36 34 C36.25072266 34.84481934 36.50144531 35.68963867 36.75976562 36.56005859 C37.77746707 39.99217417 38.78687387 43.42660591 39.7890625 46.86328125 C43.03989301 57.99778143 46.39102299 69.1042863 49.8125 80.1875 C50.01939453 80.86498291 50.22628906 81.54246582 50.43945312 82.24047852 C51.25045494 85.3755151 51.25045494 85.3755151 53 88 C53.1858667 87.32122803 53.3717334 86.64245605 53.56323242 85.94311523 C59.69852293 63.60460758 59.69852293 63.60460758 62.5 55.5 C64.77819544 48.90522371 66.64686644 42.22565656 68.5 35.5 C72.65662026 20.51898725 72.65662026 20.51898725 74.625 14.3125 C74.96789062 13.21550781 75.31078125 12.11851562 75.6640625 10.98828125 C77.87591116 6.04072504 80.82210233 2.05387955 86 0 C88.19824219 -0.22705078 88.19824219 -0.22705078 90.546875 -0.1953125 C91.81337891 -0.18564453 91.81337891 -0.18564453 93.10546875 -0.17578125 C93.97816406 -0.15902344 94.85085938 -0.14226563 95.75 -0.125 C96.63816406 -0.11597656 97.52632813 -0.10695313 98.44140625 -0.09765625 C100.62788058 -0.07414577 102.81380094 -0.04128499 105 0 C102.92656366 8.77223066 100.41123758 17.34729503 97.6875 25.9375 C94.97044222 34.57326085 92.31479656 43.21865444 89.875 51.9375 C87.6348665 59.93399451 85.17241548 67.84120261 82.61157227 75.74047852 C80.2453883 83.08817143 78.11014673 90.48843318 76.12890625 97.94921875 C74.31419143 104.56448732 72.4700128 110.59097517 67.46875 115.46875 C62.45644287 117.68139009 57.91864615 117.58220449 52.5 117.5 C51.48035156 117.51546875 50.46070313 117.5309375 49.41015625 117.546875 C42.35291507 117.51016633 38.43179718 116.40024042 33.30078125 111.31640625 C31.28220278 107.72176051 30.29800064 103.89234189 29.1875 99.9375 C28.66149038 98.12200876 28.13411389 96.30691307 27.60546875 94.4921875 C27.33911621 93.57276367 27.07276367 92.65333984 26.79833984 91.70605469 C25.59786119 87.63690932 24.29922087 83.60096488 23 79.5625 C20.59286333 72.03206038 18.39538371 64.45422718 16.25219727 56.8449707 C14.58128224 50.94579566 12.80379006 45.09016466 10.9375 39.25 C6.79595856 26.27218311 2.85169779 13.33110756 0 0 Z " fill="#95744E" transform="translate(347,591)"/>
<path d="M0 0 C2.74013341 -0.07778492 5.47804554 -0.13471671 8.21875 -0.1796875 C8.99186523 -0.20377686 9.76498047 -0.22786621 10.56152344 -0.25268555 C15.05374978 -0.30799668 17.92864108 -0.16726871 21.5 2.875 C24.4880676 6.16505315 25.12536876 8.42302287 25.13803101 12.8384552 C25.14348434 13.86050552 25.14893768 14.88255585 25.15455627 15.93557739 C25.1555986 17.06132172 25.15664093 18.18706604 25.15771484 19.34692383 C25.16533592 21.12021812 25.16533592 21.12021812 25.17311096 22.92933655 C25.18663901 26.17738333 25.19601316 29.42541664 25.20452833 32.67347932 C25.21523883 36.071791 25.23382214 39.47005528 25.25234985 42.86833191 C25.31428892 54.44839664 25.36827438 66.02845686 25.40136719 77.60864258 C25.41971825 84.0021347 25.44866082 90.39548777 25.4893719 96.78887767 C25.5104353 100.17214639 25.52589817 103.55523991 25.52817917 106.93857765 C25.53307457 110.71422397 25.5561987 114.48935128 25.58349609 118.26489258 C25.57898689 119.94440002 25.57898689 119.94440002 25.5743866 121.65783691 C25.58547958 122.68834671 25.59657257 123.71885651 25.60800171 124.78059387 C25.61131186 125.67305722 25.614622 126.56552057 25.61803246 127.48502827 C26.09374884 130.61726627 27.07289378 132.49551149 29 135 C31.79707278 135.46517193 34.08149511 135.65520005 36.875 135.625 C41.97990446 135.625 45.81948169 135.74142109 50 139 C51.59412284 142.18824568 51.10174735 145.62896662 51.0625 149.125 C51.05798828 149.87910156 51.05347656 150.63320313 51.04882812 151.41015625 C51.03703499 153.27347127 51.01909942 155.13674555 51 157 C38.71992229 159.97055876 24.33152931 161.56635903 13 155 C7.34561037 151.48171312 4.15810155 146.56597368 2.12211609 140.29685974 C-0.90337583 127.23242243 -0.38771308 113.96806162 -0.30418181 100.6321671 C-0.28521361 97.08482824 -0.28364893 93.5374788 -0.28010559 89.99009705 C-0.27084348 83.29690694 -0.2463103 76.60386679 -0.21605712 69.91074222 C-0.18232948 62.28057292 -0.16598132 54.65039582 -0.15097082 47.02017033 C-0.11975428 31.34669389 -0.06710961 15.67336641 0 0 Z " fill="#96744F" transform="translate(684,550)"/>
<path d="M0 0 C1.0625 1.6875 1.0625 1.6875 1.2890625 3.6875 C1.54429687 4.3475 1.79953125 5.0075 2.0625 5.6875 C4.50776534 6.73244736 4.50776534 6.73244736 7.5 7.375 C17.28229302 10.36435708 23.90443192 17.02209572 28.7578125 25.90625 C35.7153906 40.73797338 38.33616211 55.61496556 38.68457031 71.8359375 C38.89389791 79.94959326 39.29846771 88.49116529 45.0625 94.6875 C54.1139949 99.5502712 63.50271268 101.02420053 73.625 100.9375 C74.53185547 100.94523437 75.43871094 100.95296875 76.37304688 100.9609375 C81.55463227 100.94590752 86.24875263 100.802175 91.0625 98.6875 C92.86430825 96.58137297 94.09791314 94.86339102 95.4375 92.5 C96.00138428 91.57320435 96.00138428 91.57320435 96.57666016 90.62768555 C98.5330275 87.39271858 100.39321437 84.1052889 102.25 80.8125 C108.25412919 70.27469546 115.78223193 58.43700808 128.0625 54.6875 C131.96852427 53.65998242 135.0213187 53.27102748 138.875 54.8125 C142.37988294 57.81668538 143.94711608 60.37520025 144.35546875 65.01953125 C144.32066406 66.16808594 144.28585937 67.31664062 144.25 68.5 C144.20939453 70.24216797 144.20939453 70.24216797 144.16796875 72.01953125 C144.13316406 72.89996094 144.09835937 73.78039062 144.0625 74.6875 C145.0525 75.0175 146.0425 75.3475 147.0625 75.6875 C149.80229347 80.25382245 150.18332706 83.50256277 150 88.8125 C149.82656479 93.55678514 149.82656479 93.55678514 152 97.75 C152.680625 98.389375 153.36125 99.02875 154.0625 99.6875 C155.72276461 104.66829383 155.66153425 108.99023629 153.9375 113.875 C150.24631254 119.41178119 146.67518071 121.60971376 140.5 123.6875 C130.61162143 127.06825646 126.34142929 135.6980201 121.375 144.375 C118.33344015 149.53594463 114.69861143 154.13511731 110.93286133 158.77807617 C108.3582759 161.96390392 106.08433785 165.10995407 104.0625 168.6875 C93.39296791 187.04025492 79.75529199 197.72456554 60.86425781 206.81640625 C52.19381594 210.75168893 52.19381594 210.75168893 46.0625 217.6875 C44.14111859 224.00695679 43.85080727 230.12502524 44.0625 236.6875 C45.114375 237.244375 46.16625 237.80125 47.25 238.375 C51.72677051 240.93574906 55.3895895 243.66876849 57.0625 248.6875 C54.01215414 248.25173631 51.30255845 247.78466652 48.4375 246.625 C42.43558482 244.95780134 36.09986243 244.21922234 30.35546875 246.99609375 C28.16587813 248.47114914 26.11328164 250.0275624 24.0625 251.6875 C23.4025 252.0175 22.7425 252.3475 22.0625 252.6875 C23.57429124 248.15212629 27.09639401 245.98891547 31.0625 243.6875 C33.70279497 242.52632315 36.32068241 241.6014392 39.0625 240.6875 C38.7325 240.3575 38.4025 240.0275 38.0625 239.6875 C37.3769814 229.88861643 37.28300602 218.98738284 43.0625 210.6875 C47.79549736 205.73848709 53.35499091 202.74143751 59.4375 199.75 C67.15796705 195.82353607 74.12573202 191.80754396 80.16015625 185.4921875 C82.0625 183.6875 82.0625 183.6875 84.0625 183.6875 C84.32417969 183.12289062 84.58585938 182.55828125 84.85546875 181.9765625 C86.16940623 179.48475874 87.70771642 177.33237166 89.375 175.0625 C91.74831407 171.73596963 93.69461639 168.53334941 95.375 164.8125 C97.66314646 159.98700301 100.77194535 156.25047558 104.25561523 152.22802734 C109.43683098 146.19795559 113.69916488 139.67327925 117.125 132.5 C122.18855059 122.02960726 128.98301243 116.48558104 139.828125 112.6796875 C142.19225709 111.62988059 143.49110166 110.73385475 145.0625 108.6875 C145.31298636 105.56200983 145.31298636 105.56200983 145.0625 102.6875 C144.27875 102.39875 143.495 102.11 142.6875 101.8125 C140.0625 100.6875 140.0625 100.6875 138.0625 98.6875 C137.875 95.125 137.875 95.125 138.0625 91.6875 C138.3925 91.3575 138.7225 91.0275 139.0625 90.6875 C139.65026634 87.9428656 139.65026634 87.9428656 139.0625 84.6875 C137.67603942 83.1392655 137.67603942 83.1392655 136 81.625 C133.52048229 79.05837979 133.07860381 77.99311458 132.88671875 74.3515625 C133.15835591 71.09897207 133.52993634 67.90708942 134.0625 64.6875 C126.27011574 66.14857205 121.52793366 70.14521026 117.0234375 76.6171875 C114.32730317 80.95806787 111.78952645 85.37037585 109.3203125 89.84375 C105.09727138 97.39462537 100.17776631 103.57223369 94.0625 109.6875 C75.54820587 112.66754049 55.03936641 112.38593333 39.0625 101.6875 C36.45407574 98.9130851 34.6478864 96.13876424 33.0625 92.6875 C32.71936768 91.9661084 32.37623535 91.2447168 32.02270508 90.50146484 C30.84614358 87.05344862 30.75565588 84.09469552 30.68359375 80.453125 C30.66659927 79.77449402 30.6496048 79.09586304 30.63209534 78.39666748 C30.57925247 76.24370442 30.53876925 74.09075881 30.5 71.9375 C30.45607495 69.77005097 30.40945635 67.60275026 30.35719299 65.43548584 C30.31070807 63.47958727 30.27318242 61.52348193 30.23608398 59.56738281 C30.38833227 56.79223814 30.38833227 56.79223814 29.0625 55.6875 C28.71080582 53.84036669 28.40654368 51.98411899 28.125 50.125 C26.06986237 37.41914912 23.06899454 23.69707946 12.3359375 15.34375 C9.29849584 13.51296324 6.0745849 12.30720799 2.75 11.125 C-0.9375 9.6875 -0.9375 9.6875 -2.9375 6.6875 C-2.9375 5.3675 -2.9375 4.0475 -2.9375 2.6875 C-8.24039895 2.36932606 -11.36251701 3.0021839 -15.9375 5.6875 C-16.865625 6.05875 -17.79375 6.43 -18.75 6.8125 C-21.12040061 8.43463477 -21.12040061 8.43463477 -21.2578125 10.703125 C-21.31582031 11.87101562 -21.31582031 11.87101562 -21.375 13.0625 C-21.59369603 17.27923278 -21.59369603 17.27923278 -23.25 19.24609375 C-24.78462377 20.43026257 -26.36017345 21.56083818 -27.9375 22.6875 C-29.31004588 24.83730497 -29.31004588 24.83730497 -29.9375 26.6875 C-30.5975 26.3575 -31.2575 26.0275 -31.9375 25.6875 C-28.24678598 19.96052997 -28.24678598 19.96052997 -26.3046875 18.24609375 C-24.5232049 16.21520359 -24.75617685 15.21463273 -24.875 12.5625 C-24.53211043 7.80880372 -22.58829082 5.85711996 -19.125 2.6875 C-13.54109971 -2.06335165 -6.65774396 -4.51008462 0 0 Z " fill="#444445" transform="translate(483.9375,266.3125)"/>
<path d="M0 0 C6.1067794 5.72708327 8.71177949 13.08894145 9.19287109 21.28637695 C9.26466644 24.58526416 9.32190006 27.88287356 9.35009766 31.18237305 C9.36663839 32.59725413 9.39390464 34.01205229 9.43212891 35.42651367 C9.65484247 43.73566629 9.75872602 50.49929891 4 57 C3.278125 57.886875 2.55625 58.77375 1.8125 59.6875 C-8.22871588 67.94361083 -19.36312018 68.95976302 -32 68 C-39.13424501 66.14590243 -45.37964344 61.96217722 -49.25 55.625 C-53.58770171 47.90084696 -53.36593116 39.88354003 -53.375 31.25 C-53.39949219 30.03828125 -53.42398438 28.8265625 -53.44921875 27.578125 C-53.48407843 16.79486488 -51.55718902 7.630826 -43.92578125 -0.34375 C-31.89950359 -10.68683667 -12.11243368 -9.4092296 0 0 Z " fill="#FDFDFD" transform="translate(583,619)"/>
<path d="M0 0 C9.31953782 -0.2432297 17.79262306 1.04889561 25.03125 7.42578125 C32.79180683 16.20746398 33.77949665 23.95963565 33.77685547 35.26123047 C33.78121025 37.34426832 33.81753051 39.42515107 33.85546875 41.5078125 C33.94345629 51.88662086 32.45617923 60.82962303 25.17578125 68.64453125 C16.37565896 75.94882701 4.24736952 75.92607902 -6.59375 75.11328125 C-13.476273 73.39018894 -20.13462579 69.18620572 -23.84375 63.04296875 C-27.75357346 54.79209131 -28.96772793 46.360871 -28.90625 37.30078125 C-28.90061035 36.42711914 -28.8949707 35.55345703 -28.88916016 34.65332031 C-28.71298738 25.23069346 -27.71950088 16.32453043 -21.4609375 8.8671875 C-15.02759613 2.82415345 -8.71567056 0.38065429 0 0 Z " fill="#FDFDFD" transform="translate(235.59375,611.88671875)"/>
<path d="M0 0 C-0.33 0.66 -0.66 1.32 -1 2 C-2.95680237 2.53833008 -2.95680237 2.53833008 -5.47875977 2.95703125 C-10.55545644 3.88415219 -15.40946788 5.17574624 -20.33984375 6.6875 C-21.19593735 6.94732666 -22.05203094 7.20715332 -22.93406677 7.47485352 C-32.55284183 10.42656981 -42.0583207 13.7015489 -51.5625 17 C-55.00023949 18.19059847 -58.43896097 19.3782894 -61.87890625 20.5625 C-62.71612213 20.85084717 -63.55333801 21.13919434 -64.41592407 21.4362793 C-71.10255277 23.72474769 -77.82670545 25.87989258 -84.58119202 27.95922852 C-89.46247474 29.47121504 -94.22596453 31.17649657 -99 33 C-108.79290419 36.49077453 -118.65921062 39.54230518 -128.7265625 42.12890625 C-132.13874731 43.03692202 -135.45749468 44.09081549 -138.77734375 45.2890625 C-141.42357342 46.13548394 -144.10494069 46.79857398 -146.80249023 47.45996094 C-148.98802048 47.99705603 -151.16801086 48.55282175 -153.34765625 49.11328125 C-166.16498585 52.38680623 -179.01565472 55.45940472 -192 58 C-193.02416016 58.20044922 -194.04832031 58.40089844 -195.10351562 58.60742188 C-214.48995779 62.25959288 -233.37417939 62.48899863 -253 62 C-254.03415039 61.98308105 -255.06830078 61.96616211 -256.13378906 61.94873047 C-279.49181512 61.55901981 -307.11783041 59.27441081 -328 48 C-329.34384766 47.28650391 -329.34384766 47.28650391 -330.71484375 46.55859375 C-335.90373798 43.64031696 -339.53467462 40.85145553 -343 36 C-339.82166979 37.46580526 -337.17656437 39.28523374 -334.375 41.375 C-314.76084742 55.1764913 -287.53774502 54.35877369 -264.54370117 54.26074219 C-261.56733795 54.25001743 -258.59157963 54.26072121 -255.61523438 54.2734375 C-235.70494926 54.28848267 -216.35408026 52.7690011 -197 48 C-195.94554687 47.74025391 -194.89109375 47.48050781 -193.8046875 47.21289062 C-180.40538445 43.87832603 -167.10734822 40.34997427 -154 36 C-152.6967163 35.5739075 -151.39332867 35.14813279 -150.08984375 34.72265625 C-144.48504738 32.88251472 -138.90705663 30.98700289 -133.375 28.9375 C-128.45135236 27.12199571 -123.467086 25.58209104 -118.4453125 24.0625 C-112.25978338 22.15494453 -106.1339413 20.06623463 -100 18 C-97.33396686 17.10226735 -94.66718874 16.20679269 -92 15.3125 C-90.824375 14.91675781 -89.64875 14.52101562 -88.4375 14.11328125 C-77.90640394 10.70264219 -77.90640394 10.70264219 -73 11 C-73 10.34 -73 9.68 -73 9 C-57.07763713 4.39324895 -57.07763713 4.39324895 -51 3 C-49.97648437 2.76410156 -48.95296875 2.52820313 -47.8984375 2.28515625 C-32.07348104 -1.24124757 -15.94434018 -4.39843867 0 0 Z " fill="#454547" transform="translate(743,161)"/>
<path d="M0 0 C2.84375 1.8203125 2.84375 1.8203125 5.5 4.125 C6.44101562 4.93839844 7.38203125 5.75179687 8.3515625 6.58984375 C13.66354255 11.4239023 18.49644288 16.40467145 23 22 C22.67 22.66 22.34 23.32 22 24 C21.25169922 23.18208984 21.25169922 23.18208984 20.48828125 22.34765625 C13.45778589 14.96374281 4.56703148 6.01392806 -6 5 C-12.72152734 14.20131413 -16.34240007 22.98575152 -15.7890625 34.51953125 C-15.2209295 50.58612907 -15.2209295 50.58612907 -18.38623047 54.88085938 C-21.90280699 57.81447401 -25.97301301 59.5267052 -30.19580078 61.21582031 C-46.00148738 68.08562618 -53.58625761 91.07537914 -59.578125 105.9140625 C-62.10281066 111.39346269 -64.96848592 115.603728 -70 119 C-79.85832315 122.00558633 -89.46142338 118.6216456 -99 116 C-97.42725349 127.26826621 -94.73992836 137.77004577 -86.08984375 145.765625 C-75.55341799 153.12439855 -60.4692971 153.91722726 -48 155 C-48.33 155.99 -48.66 156.98 -49 158 C-55.53328407 160.3421207 -62.10858759 160.45589344 -69 160 C-69.66 159.67 -70.32 159.34 -71 159 C-71 158.34 -71 157.68 -71 157 C-72.299375 156.9175 -73.59875 156.835 -74.9375 156.75 C-85.03690795 155.55069531 -92.27499855 150.51281996 -99 143 C-105.49833375 133.32619182 -108.59595065 123.70834591 -107 112 C-105.32597821 108.92003821 -104.32473942 108.571695 -101 107 C-97.31596829 106.53949604 -94.81178816 106.71681809 -91.3125 107.9375 C-85.87085643 109.68293284 -77.39757287 111.55485116 -72 109 C-70.88510751 106.90144969 -70.88510751 106.90144969 -70 104 C-69.3857631 102.53728332 -68.75655426 101.08081437 -68.1171875 99.62890625 C-67.75882812 98.81405762 -67.40046875 97.99920898 -67.03125 97.15966797 C-59.08146744 79.30287175 -50.70326948 63.26671196 -34 52 C-33.32573975 51.74323486 -32.65147949 51.48646973 -31.95678711 51.22192383 C-29.68514989 50.33668893 -27.9052873 49.52840822 -26 48 C-24.78026636 44.85121656 -24.75274664 41.788161 -24.6875 38.4375 C-24.5779127 36.6246083 -24.46207642 34.81208302 -24.33984375 33 C-24.28812012 32.13246094 -24.23639648 31.26492188 -24.18310547 30.37109375 C-23.27511866 18.61326985 -17.81350758 7.99934035 -9.22265625 0.046875 C-5.81895923 -1.55627228 -3.58774667 -0.9291444 0 0 Z " fill="#444446" transform="translate(385,232)"/>
<path d="M0 0 C0.86816345 -0.00067474 1.7363269 -0.00134949 2.63079834 -0.00204468 C35.80026298 0.0384105 67.98096189 4.17160521 100.375 11.25 C102.43727062 11.68987887 104.49976091 12.12872946 106.5625 12.56640625 C108.50003812 12.98159299 110.43753865 13.39695518 112.375 13.8125 C113.35855469 14.02068359 114.34210938 14.22886719 115.35546875 14.44335938 C121.68335492 15.80543474 127.58358625 17.29358165 133.375 20.25 C115.35286801 20.74679329 97.68667687 20.19085362 79.75 18.3125 C78.87561279 18.22109741 78.00122559 18.12969482 77.1003418 18.03552246 C63.27893589 16.57170461 63.27893589 16.57170461 58.22802734 15.71826172 C55.31624035 15.2403559 52.45920288 14.98182808 49.515625 14.78515625 C48.39800781 14.70716797 47.28039062 14.62917969 46.12890625 14.54882812 C43.83989363 14.39444099 41.55083296 14.24076411 39.26171875 14.08789062 C33.61446694 13.69277574 28.01712772 13.21563104 22.40367126 12.47416687 C8.99386439 10.75909515 -4.43969431 10.94267533 -17.9375 11 C-19.2283551 11.00310181 -20.51921021 11.00620361 -21.84918213 11.00939941 C-54.83215328 11.10256731 -87.32983286 13.00006452 -119.625 20.25 C-119.625 19.59 -119.625 18.93 -119.625 18.25 C-116.1682712 17.28581666 -112.70934213 16.32976067 -109.25 15.375 C-108.28449219 15.10558594 -107.31898438 14.83617187 -106.32421875 14.55859375 C-100.94210789 13.07761022 -95.57932446 11.77829862 -90.09619141 10.73291016 C-87.55914528 10.23713094 -85.0434349 9.67746679 -82.5234375 9.1015625 C-70.72011846 6.45404897 -58.9354138 4.47517344 -46.9375 3 C-46.26926208 2.91727844 -45.60102417 2.83455688 -44.91253662 2.74932861 C-29.90943762 0.91128162 -15.10235039 0.01065861 0 0 Z " fill="#464646" transform="translate(539.625,241.75)"/>
<path d="M0 0 C2.64 0 5.28 0 8 0 C9.12373688 2.72907528 10.14485651 5.44309051 11.0625 8.25 C11.73364914 10.88068876 11.73364914 10.88068876 13 12 C14.66617115 12.04063832 16.33388095 12.042721 18 12 C18.33 11.34 18.66 10.68 19 10 C20.32 10 21.64 10 23 10 C25.99995724 21.24983966 23.72130375 34.00600904 18 44 C15.78393599 47.3505995 13.45981966 50.62577769 11.14868164 53.91113281 C-0.59663155 70.76061621 -5.96340433 89.91944971 -2.4375 110.5 C0.42933333 121.26566083 6.66783633 130.78336204 14 139 C14.42861328 139.48742676 14.85722656 139.97485352 15.29882812 140.47705078 C22.31998412 148.44451479 29.68870077 155.44936346 38.09082031 161.94335938 C59.0930456 178.22535952 59.0930456 178.22535952 61.62109375 191.18359375 C62.07826814 195.78832959 62.10820365 200.31440024 62.0625 204.9375 C62.05798828 205.81212891 62.05347656 206.68675781 62.04882812 207.58789062 C62.03714834 209.72529047 62.01921689 211.86265463 62 214 C61.07006226 214.29547729 61.07006226 214.29547729 60.12133789 214.59692383 C58.90305298 214.9917395 58.90305298 214.9917395 57.66015625 215.39453125 C56.85457275 215.65339111 56.04898926 215.91225098 55.21899414 216.17895508 C52.76657012 217.08637085 50.93136312 218.2365815 49 220 C48.34 219.67 47.68 219.34 47 219 C50.97091172 215.40727035 53.78846975 213.56199926 59 212 C57.76822912 198.02912506 56.2827845 187.30777608 46 177 C43.25615473 174.74573828 40.37312435 172.74517079 37.4375 170.75 C29.17782141 164.95221884 21.45420858 158.79853583 14 152 C13.49887695 151.54947266 12.99775391 151.09894531 12.48144531 150.63476562 C4.72610303 143.59379881 -0.71055021 135.92594651 -6 127 C-6.79857422 125.7625 -6.79857422 125.7625 -7.61328125 124.5 C-14.78147577 111.57705777 -14.80799065 94.56578723 -11.625 80.5 C-7.3607498 66.57714776 0.36469834 51.26569519 11.56640625 41.65625 C15.72606738 36.85053796 16.85709546 30.10367549 18.1875 24.0625 C18.36474609 23.28326172 18.54199219 22.50402344 18.72460938 21.70117188 C19.1556824 19.80212046 19.57869008 17.90124122 20 16 C18.09541016 16.07541016 18.09541016 16.07541016 16.15234375 16.15234375 C13.98803711 16.23803711 13.98803711 16.23803711 12 16 C7.64462901 11.64462901 7.26115054 6.8758871 7 1 C4.69 1 2.38 1 0 1 C0 0.67 0 0.34 0 0 Z " fill="#464647" transform="translate(458,292)"/>
<path d="M0 0 C2.38779861 0.84728338 4.61965787 1.76291449 6.7734375 3.10546875 C19.8676455 11.25799289 37.03365297 12.64469463 52.15429688 13.28613281 C60.35480891 13.64456057 67.27871881 15.31899959 75 18 C77.64893585 18.74988258 80.31847689 19.37819754 83 20 C84.0209375 20.2475 85.041875 20.495 86.09375 20.75 C93.36698375 22.4862142 93.36698375 22.4862142 100.75 23.625 C104 24 104 24 105 25 C106.87460412 25.05706236 108.74947972 25.10958691 110.62475586 25.13671875 C119.25423674 25.32619748 125.14078156 26.39870052 132 32 C132.82757813 32.6290625 133.65515625 33.258125 134.5078125 33.90625 C145.52200878 42.93317539 151.45475976 54.72935883 156 68 C156.65685831 69.67055661 157.32021455 71.33864093 158 73 C153.96915507 69.24887562 151.06910301 65.32209172 148.125 60.6875 C139.69389641 47.76001643 130.92830152 37.79689183 115.56640625 33.7421875 C111.02724124 32.79756389 106.47085224 32.22086576 101.875 31.625 C89.6866886 30.01530456 78.5531854 26.79129173 67.125 22.3125 C60.80079042 19.97718408 54.83796332 19.29363179 48.18164062 18.73095703 C31.49820669 17.2535686 14.46528189 12.20174983 1 2 C0.67 1.34 0.34 0.68 0 0 Z " fill="#454546" transform="translate(311,396)"/>
<path d="M0 0 C1.32 0.33 2.64 0.66 4 1 C3.401875 1.886875 2.80375 2.77375 2.1875 3.6875 C-0.14380056 7.21775513 -2.3115905 10.81586083 -4.4375 14.47265625 C-14.78141014 31.6176873 -28.42337834 41.57425385 -46.19824219 50.12890625 C-54.86868406 54.06418893 -54.86868406 54.06418893 -61 61 C-62.92138141 67.31945679 -63.21169273 73.43752524 -63 80 C-61.948125 80.556875 -60.89625 81.11375 -59.8125 81.6875 C-55.33572949 84.24824906 -51.6729105 86.98126849 -50 92 C-53.05034586 91.56423631 -55.75994155 91.09716652 -58.625 89.9375 C-64.62691518 88.27030134 -70.96263757 87.53172234 -76.70703125 90.30859375 C-78.89662187 91.78364914 -80.94921836 93.3400624 -83 95 C-83.99 95.495 -83.99 95.495 -85 96 C-83.48820876 91.46462629 -79.96610599 89.30141547 -76 87 C-73.35970503 85.83882315 -70.74181759 84.9139392 -68 84 C-68.495 83.505 -68.495 83.505 -69 83 C-69.6855186 73.20111643 -69.77949398 62.29988284 -64 54 C-59.26700264 49.05098709 -53.70750909 46.05393751 -47.625 43.0625 C-39.90453295 39.13603607 -32.93676798 35.12004396 -26.90234375 28.8046875 C-25 27 -25 27 -23 27 C-22.73960937 26.43667969 -22.47921875 25.87335938 -22.2109375 25.29296875 C-20.88099816 22.77466426 -19.31499004 20.60394938 -17.625 18.3125 C-14.38609042 13.76179824 -12.02056411 9.19573628 -10 4 C-9.505 4.99 -9.505 4.99 -9 6 C-5.06924356 5.42547254 -5.06924356 5.42547254 -2 3 C-1.34 2.01 -0.68 1.02 0 0 Z " fill="#454546" transform="translate(591,423)"/>
<path d="M0 0 C17.26232102 9.85111252 31.05430145 29.72514604 37.3359375 48.3515625 C38.24912628 51.99357422 38.4979536 55.57465948 38.7421875 59.3125 C39.72840097 69.59302826 44.82683716 77.95284129 51 86 C44.32018737 83.21674474 39.84299618 75.78963901 36.8203125 69.4140625 C35.74083189 66.23730529 35.21021142 63.05274488 34.625 59.75 C32.58581683 48.2710506 26.95285616 39.1871778 20 30 C19.35933594 29.14277344 18.71867187 28.28554688 18.05859375 27.40234375 C11.99196222 19.53115646 5.15712478 13.60802329 -3 8 C-2.67 6.02 -2.34 4.04 -2 2 C-1.34 2 -0.68 2 0 2 C0 1.34 0 0.68 0 0 Z " fill="#49494A" transform="translate(444,456)"/>
<path d="M0 0 C1.0625 1.6875 1.0625 1.6875 1.2890625 3.6875 C1.54429687 4.3475 1.79953125 5.0075 2.0625 5.6875 C4.50776534 6.73244736 4.50776534 6.73244736 7.5 7.375 C17.47561359 10.42343364 23.90118334 17.18312314 28.87890625 26.1796875 C30.64058717 29.91235797 31.96761487 33.71133822 33.0625 37.6875 C32.42828125 37.97367187 31.7940625 38.25984375 31.140625 38.5546875 C28.64688799 39.91405542 28.09817876 41.09830309 27.0625 43.6875 C26.815 42.57375 26.5675 41.46 26.3125 40.3125 C23.7749494 30.38980214 19.8352187 19.8638647 10.625 14.3125 C7.99714868 13.11383098 5.46031516 12.08877633 2.75 11.125 C-0.9375 9.6875 -0.9375 9.6875 -2.9375 6.6875 C-2.9375 5.3675 -2.9375 4.0475 -2.9375 2.6875 C-8.24039895 2.36932606 -11.36251701 3.0021839 -15.9375 5.6875 C-16.865625 6.05875 -17.79375 6.43 -18.75 6.8125 C-21.12040061 8.43463477 -21.12040061 8.43463477 -21.2578125 10.703125 C-21.31582031 11.87101562 -21.31582031 11.87101562 -21.375 13.0625 C-21.59369603 17.27923278 -21.59369603 17.27923278 -23.25 19.24609375 C-24.78462377 20.43026257 -26.36017345 21.56083818 -27.9375 22.6875 C-29.31004588 24.83730497 -29.31004588 24.83730497 -29.9375 26.6875 C-30.5975 26.3575 -31.2575 26.0275 -31.9375 25.6875 C-28.24678598 19.96052997 -28.24678598 19.96052997 -26.3046875 18.24609375 C-24.5232049 16.21520359 -24.75617685 15.21463273 -24.875 12.5625 C-24.53211043 7.80880372 -22.58829082 5.85711996 -19.125 2.6875 C-13.54109971 -2.06335165 -6.65774396 -4.51008462 0 0 Z " fill="#474747" transform="translate(483.9375,266.3125)"/>
<path d="M0 0 C0.33 0.66 0.66 1.32 1 2 C0.690625 2.845625 0.38125 3.69125 0.0625 4.5625 C-2.03882073 11.36089058 -1.23509404 17.29471787 1 24 C1.12375 24.763125 1.2475 25.52625 1.375 26.3125 C1.8612033 28.16773932 1.8612033 28.16773932 3.765625 29.05078125 C7.45374852 30.61758897 10.99949437 31.13914802 15 31 C19.3345162 29.20076686 21.29848268 26.95568211 23.375 22.875 C26.43285222 15.1157 25.31087233 7.79919412 23 0 C26.44216497 1.72108248 26.95973964 5.3316859 28.16015625 8.82421875 C29.99812467 15.77430397 30.2058405 22.38454467 27 28.9375 C24.17035734 33.30913895 20.8999 36.17351398 16 38 C11.24083343 38.90343501 8.01340051 38.51626064 3.6875 36.3125 C-0.65816353 32.57320813 -4.6347448 28.410839 -5.265625 22.51953125 C-5.21872905 14.39480741 -4.84033082 6.82046616 0 0 Z " fill="#464647" transform="translate(573,478)"/>
<path d="M0 0 C0.66 0 1.32 0 2 0 C2.05607422 1.51980469 2.05607422 1.51980469 2.11328125 3.0703125 C2.17898388 4.42190939 2.24542971 5.77347029 2.3125 7.125 C2.33505859 7.79015625 2.35761719 8.4553125 2.38085938 9.140625 C2.6754328 14.60362309 4.06154541 18.5115156 7.41796875 22.8203125 C10.53077747 25.14146863 14.22873325 25.08394943 18 25 C22.08351706 23.84428763 24.16659665 22.25889629 26.3125 18.6875 C28.96079014 12.83049317 28.82229734 6.32621459 29 0 C32.44995423 3.44995423 32.2434852 7.00860792 32.375 11.6875 C32.33607142 19.2240726 30.47994397 23.11741788 25.58203125 28.58203125 C21.53354302 32.21067626 17.727374 32.43623233 12.46875 32.3125 C8.75949983 31.84297466 6.74834104 30.48659428 4 28 C1.75 25 1.75 25 0 22 C-0.3609375 21.39929688 -0.721875 20.79859375 -1.09375 20.1796875 C-3.35744801 14.7351035 -2.48178894 7.80670852 -1 2.25 C-0.67 1.5075 -0.34 0.765 0 0 Z " fill="#4A4A4B" transform="translate(611,484)"/>
<path d="M0 0 C0.66 0.33 1.32 0.66 2 1 C1.67 1.33 1.34 1.66 1 2 C2.32 2.99 3.64 3.98 5 5 C4.071875 5.5775 3.14375 6.155 2.1875 6.75 C-2.48589841 10.63897456 -3.14851098 16.23607434 -4 22 C-4.19315549 25.05614916 -4.15327603 27.93447944 -4 31 C-2.948125 31.556875 -1.89625 32.11375 -0.8125 32.6875 C3.66427051 35.24824906 7.3270895 37.98126849 9 43 C5.94965414 42.56423631 3.24005845 42.09716652 0.375 40.9375 C-5.62691518 39.27030134 -11.96263757 38.53172234 -17.70703125 41.30859375 C-19.89662187 42.78364914 -21.94921836 44.3400624 -24 46 C-24.99 46.495 -24.99 46.495 -26 47 C-24.48820876 42.46462629 -20.96610599 40.30141547 -17 38 C-14.35970503 36.83882315 -11.74181759 35.9139392 -9 35 C-9.495 34.505 -9.495 34.505 -10 34 C-10.73571483 23.48360568 -10.80852097 11.76560682 -3.625 3.3984375 C-2.46375698 2.21740056 -1.23793494 1.10038661 0 0 Z " fill="#4C4C4C" transform="translate(532,472)"/>
<path d="M0 0 C0 0.99 0 1.98 0 3 C1.32 3.66 2.64 4.32 4 5 C3.26813477 5.03963867 2.53626953 5.07927734 1.78222656 5.12011719 C-21.70303815 6.44148272 -45.00910131 8.83877784 -68 14 C-68 13.34 -68 12.68 -68 12 C-64.5432712 11.03581666 -61.08434213 10.07976067 -57.625 9.125 C-56.65949219 8.85558594 -55.69398438 8.58617187 -54.69921875 8.30859375 C-49.35351716 6.83762888 -44.02696105 5.53960969 -38.58105469 4.50048828 C-35.71740964 3.94520334 -32.86963134 3.33192679 -30.01953125 2.7109375 C-28.49102539 2.38222656 -28.49102539 2.38222656 -26.93164062 2.046875 C-24.83940009 1.59619827 -22.74825561 1.14040495 -20.65820312 0.6796875 C-13.44363829 -0.85941966 -7.27514412 -1.7636713 0 0 Z " fill="#4F4F4F" transform="translate(488,248)"/>
<path d="M0 0 C17.55118732 2.34862181 40.00161968 26.30995028 50.4140625 39.74609375 C55.0834869 46.38219691 55.0834869 46.38219691 54.6875 49.3125 C54.460625 49.869375 54.23375 50.42625 54 51 C53.74347656 50.46632812 53.48695313 49.93265625 53.22265625 49.3828125 C41.88131355 27.31110852 17.14707265 15.05856092 -4 4 C-2.68 3.34 -1.36 2.68 0 2 C0 1.34 0 0.68 0 0 Z " fill="#484849" transform="translate(337,131)"/>
<path d="M0 0 C0.66 0 1.32 0 2 0 C2 0.66 2 1.32 2 2 C2.66 2 3.32 2 4 2 C4 1.34 4 0.68 4 0 C10.3833448 -0.48176187 10.3833448 -0.48176187 13 1.5625 C14.42244091 5.02969973 13.85063855 7.4011446 13 11 C12.01 12.485 12.01 12.485 11 14 C7.375 14.1875 7.375 14.1875 4 14 C3.67 15.98 3.34 17.96 3 20 C2.01 20 1.02 20 0 20 C0 13.4 0 6.8 0 0 Z " fill="#515153" transform="translate(657,752)"/>
<path d="M0 0 C1.0625 1.6875 1.0625 1.6875 1.375 3.68359375 C1.87014893 5.84821971 1.87014893 5.84821971 3.91015625 6.734375 C4.64105469 6.96640625 5.37195313 7.1984375 6.125 7.4375 C6.85847656 7.67984375 7.59195313 7.9221875 8.34765625 8.171875 C8.91355469 8.34203125 9.47945313 8.5121875 10.0625 8.6875 C9.7325 9.6775 9.4025 10.6675 9.0625 11.6875 C9.7225 11.6875 10.3825 11.6875 11.0625 11.6875 C11.0625 12.3475 11.0625 13.0075 11.0625 13.6875 C9.28733971 13.28967121 7.51740837 12.86846339 5.75 12.4375 C4.76386719 12.20546875 3.77773438 11.9734375 2.76171875 11.734375 C-0.34520387 10.52937462 -1.37764403 9.6049098 -2.9375 6.6875 C-2.9375 5.3675 -2.9375 4.0475 -2.9375 2.6875 C-8.24039895 2.36932606 -11.36251701 3.0021839 -15.9375 5.6875 C-16.865625 6.05875 -17.79375 6.43 -18.75 6.8125 C-21.12040061 8.43463477 -21.12040061 8.43463477 -21.2578125 10.703125 C-21.31582031 11.87101562 -21.31582031 11.87101562 -21.375 13.0625 C-21.59369603 17.27923278 -21.59369603 17.27923278 -23.25 19.24609375 C-24.78462377 20.43026257 -26.36017345 21.56083818 -27.9375 22.6875 C-29.31004588 24.83730497 -29.31004588 24.83730497 -29.9375 26.6875 C-30.5975 26.3575 -31.2575 26.0275 -31.9375 25.6875 C-28.24678598 19.96052997 -28.24678598 19.96052997 -26.3046875 18.24609375 C-24.5232049 16.21520359 -24.75617685 15.21463273 -24.875 12.5625 C-24.53211043 7.80880372 -22.58829082 5.85711996 -19.125 2.6875 C-13.54109971 -2.06335165 -6.65774396 -4.51008462 0 0 Z " fill="#434343" transform="translate(483.9375,266.3125)"/>
<path d="M0 0 C2.38779861 0.84728338 4.61965787 1.76291449 6.7734375 3.10546875 C21.75651448 12.43401285 41.91931826 12.88858578 59 14 C59 15.32 59 16.64 59 18 C38.22578358 18.86559235 17.99216317 14.87383355 1 2 C0.67 1.34 0.34 0.68 0 0 Z " fill="#454545" transform="translate(311,396)"/>
<path d="M0 0 C3.3 0 6.6 0 10 0 C13 3 13 3 13.375 6.4375 C12.82692308 11.64423077 12.82692308 11.64423077 10 14 C6.87376745 14.31900332 4.82883747 14.41441874 2 13 C2 15.31 2 17.62 2 20 C1.34 20 0.68 20 0 20 C0 13.4 0 6.8 0 0 Z " fill="#48484A" transform="translate(638,752)"/>
<path d="M0 0 C4.09436748 2.94823292 6.83536911 6.20832591 9.5 10.4375 C10.08309937 11.35196899 10.08309937 11.35196899 10.67797852 12.28491211 C14.33439967 18.20799385 16.74857555 24.42656395 19 31 C19.65685831 32.67055661 20.32021455 34.33864093 21 36 C16.96943342 32.24913466 14.06787402 28.32265752 11.125 23.6875 C7.87219422 18.67734052 4.56635724 13.98861277 0.47265625 9.61328125 C-1.15455504 7.83068639 -2.57786868 5.94853217 -4 4 C-3.34 4 -2.68 4 -2 4 C-2 3.34 -2 2.68 -2 2 C-1.34 2 -0.68 2 0 2 C0 1.34 0 0.68 0 0 Z " fill="#4D4D4D" transform="translate(448,433)"/>
<path d="M0 0 C3.72215685 7.92981242 4.14820484 15.26812537 4.0625 23.9375 C4.05798828 24.81212891 4.05347656 25.68675781 4.04882812 26.58789062 C4.03714834 28.72529047 4.01921689 30.86265463 4 33 C3.3800415 33.19698486 2.76008301 33.39396973 2.12133789 33.59692383 C1.30914795 33.86013428 0.49695801 34.12334473 -0.33984375 34.39453125 C-1.14542725 34.65339111 -1.95101074 34.91225098 -2.78100586 35.17895508 C-5.23342988 36.08637085 -7.06863688 37.2365815 -9 39 C-9.66 38.67 -10.32 38.34 -11 38 C-7.02908828 34.40727035 -4.21153025 32.56199926 1 31 C0.15171984 21.37871709 -0.77544257 12.8148774 -5 4 C-5.33 3.01 -5.66 2.02 -6 1 C-3.92446352 0.4465236 -2.15634036 0 0 0 Z " fill="#4B4B4C" transform="translate(516,473)"/>
<path d="M0 0 C1.9375 1 1.9375 1 3 3 C3.52960415 6.58042244 3.65886567 9.75978228 1.9375 13 C-1.16867275 14.60318593 -3.57990979 14.42751128 -7 14 C-8.9375 12.4375 -8.9375 12.4375 -10 10 C-10.61818182 4.12727273 -10.61818182 4.12727273 -8.9375 1.0625 C-5.88023824 -0.6140629 -3.4093712 -0.36528977 0 0 Z " fill="#434345" transform="translate(263,752)"/>
<path d="M0 0 C3.6875 0.25 3.6875 0.25 6.125 1.375 C7.6875 3.25 7.6875 3.25 8.1875 6.25 C7.6875 9.25 7.6875 9.25 6 11.125 C3.35479453 12.41185671 1.59316174 12.49213848 -1.3125 12.25 C-1.3125 14.89 -1.3125 17.53 -1.3125 20.25 C-2.3025 20.25 -3.2925 20.25 -4.3125 20.25 C-4.34138514 17.10418577 -4.35925923 13.95840531 -4.375 10.8125 C-4.38337891 9.91466797 -4.39175781 9.01683594 -4.40039062 8.09179688 C-4.40361328 7.23779297 -4.40683594 6.38378906 -4.41015625 5.50390625 C-4.41801147 4.31776733 -4.41801147 4.31776733 -4.42602539 3.10766602 C-4.2246387 -0.18771314 -3.38435889 0.25542331 0 0 Z " fill="#575759" transform="translate(239.3125,745.75)"/>
<path d="M0 0 C1.32 0 2.64 0 4 0 C5.00486895 2.95670218 6.00306024 5.91561577 7 8.875 C7.28617187 9.71675781 7.57234375 10.55851563 7.8671875 11.42578125 C8.13789063 12.23144531 8.40859375 13.03710938 8.6875 13.8671875 C9.06455078 14.98262939 9.06455078 14.98262939 9.44921875 16.12060547 C10 18 10 18 10 20 C9.01 20 8.02 20 7 20 C6.67 18.02 6.34 16.04 6 14 C3.36 14 0.72 14 -2 14 C-2.33 15.98 -2.66 17.96 -3 20 C-3.99 20 -4.98 20 -6 20 C-4.22089072 13.24947898 -2.29561809 6.59379663 0 0 Z " fill="#4F4F51" transform="translate(376,746)"/>
<path d="M0 0 C3.33333333 0 6.66666667 0 10 0 C10 0.66 10 1.32 10 2 C10.99 1.34 11.98 0.68 13 0 C15.5625 -0.25 15.5625 -0.25 18 0 C20 2 20 2 20.1953125 4.8203125 C20.17210937 5.91085937 20.14890625 7.00140625 20.125 8.125 C20.10695313 9.22070312 20.08890625 10.31640625 20.0703125 11.4453125 C20.04710937 12.28835938 20.02390625 13.13140625 20 14 C19.34 14 18.68 14 18 14 C17.67 10.37 17.34 6.74 17 3 C15.68 3 14.36 3 13 3 C12.67 6.63 12.34 10.26 12 14 C11.01 14 10.02 14 9 14 C8.67 10.37 8.34 6.74 8 3 C6.68 3 5.36 3 4 3 C3.67 6.63 3.34 10.26 3 14 C2.01 14 1.02 14 0 14 C0 9.38 0 4.76 0 0 Z " fill="#575759" transform="translate(421,752)"/>
<path d="M0 0 C4.86213282 0.74802043 8.66767109 3.49002724 11.875 7.125 C13 9 13 9 13 11 C9.94965414 10.56423631 7.24005845 10.09716652 4.375 8.9375 C-1.62691518 7.27030134 -7.96263757 6.53172234 -13.70703125 9.30859375 C-15.89662187 10.78364914 -17.94921836 12.3400624 -20 14 C-20.99 14.495 -20.99 14.495 -22 15 C-20.48820876 10.46462629 -16.96610599 8.30141547 -13 6 C-10.35970503 4.83882315 -7.74181759 3.9139392 -5 3 C-5 2.67 -5 2.34 -5 2 C-3.35 2 -1.7 2 0 2 C0 1.34 0 0.68 0 0 Z " fill="#616162" transform="translate(528,504)"/>
<path d="M0 0 C1.65 0 3.3 0 5 0 C6.56476037 3.50028726 7.25131753 6.36793833 7.4375 10.1875 C8.37698696 21.8684546 12.92536065 30.77770228 20 40 C13.3351442 37.22297675 8.84115015 29.8075234 5.8359375 23.4375 C4.29214148 18.93596395 3.53055227 14.26256295 2.7109375 9.5859375 C2.05095779 6.25702884 1.14802662 3.18896283 0 0 Z " fill="#525252" transform="translate(475,502)"/>
<path d="M0 0 C1.11117188 0.20496094 2.22234375 0.40992188 3.3671875 0.62109375 C11.23580612 2.0529577 19.01838463 3.36653846 27 4 C26.67 4.99 26.34 5.98 26 7 C19.46671593 9.3421207 12.89141241 9.45589344 6 9 C5.34 8.67 4.68 8.34 4 8 C4 6.68 4 5.36 4 4 C4.66 4 5.32 4 6 4 C6 3.34 6 2.68 6 2 C4.35 2 2.7 2 1 2 C0.67 1.34 0.34 0.68 0 0 Z " fill="#565656" transform="translate(310,383)"/>
<path d="M0 0 C1.27875 -0.061875 2.5575 -0.12375 3.875 -0.1875 C4.95394531 -0.23970703 4.95394531 -0.23970703 6.0546875 -0.29296875 C6.69664062 -0.19628906 7.33859375 -0.09960938 8 0 C10.28062828 3.42094242 10.21925007 4.68187222 10.125 8.6875 C10.10695313 9.68136719 10.08890625 10.67523437 10.0703125 11.69921875 C10.03550781 12.83810547 10.03550781 12.83810547 10 14 C8.35425434 14.02688151 6.70838587 14.04634123 5.0625 14.0625 C4.14597656 14.07410156 3.22945312 14.08570313 2.28515625 14.09765625 C0 14 0 14 -1 13 C-1.29573841 10.19048514 -1.38243085 8.58371024 0.1875 6.1875 C2.55982525 4.63321794 4.22041345 4.77462812 7 5 C7 4.01 7 3.02 7 2 C4.69 2 2.38 2 0 2 C0 1.34 0 0.68 0 0 Z " fill="#5E5E60" transform="translate(535,752)"/>
<path d="M0 0 C6.45672625 -0.36547507 6.45672625 -0.36547507 8.71875 1.15625 C10.50895567 3.73239963 10.2969848 5.5854308 10.1875 8.6875 C10.16042969 9.68136719 10.13335937 10.67523437 10.10546875 11.69921875 C10.07066406 12.45847656 10.03585937 13.21773437 10 14 C8.35425434 14.02688151 6.70838587 14.04634123 5.0625 14.0625 C4.14597656 14.07410156 3.22945313 14.08570313 2.28515625 14.09765625 C0 14 0 14 -1 13 C-1.29573841 10.19048514 -1.38243085 8.58371024 0.1875 6.1875 C2.55982525 4.63321794 4.22041345 4.77462812 7 5 C6.67 4.34 6.34 3.68 6 3 C2.97065509 2.34227572 2.97065509 2.34227572 0 2 C0 1.34 0 0.68 0 0 Z " fill="#535355" transform="translate(449,752)"/>
<path d="M0 0 C5.194965 1.51975075 8.47482876 4.80320654 12.3125 8.4375 C12.97531982 9.05987549 13.63813965 9.68225098 14.32104492 10.32348633 C19.65042052 15.43725644 24.0002437 20.77448399 28 27 C28.66 27.99 29.32 28.98 30 30 C29.625 32.1875 29.625 32.1875 29 34 C28.74347656 33.46632812 28.48695313 32.93265625 28.22265625 32.3828125 C22.66581888 21.56849599 14.46350277 14.21062411 4.8203125 7.12890625 C2.67350374 5.50839271 0.81170091 3.97006638 -1 2 C-0.67 1.34 -0.34 0.68 0 0 Z " fill="#414141" transform="translate(362,148)"/>
<path d="M0 0 C3 0 6 0 9 0 C10.2375 -0.0928125 10.2375 -0.0928125 11.5 -0.1875 C14 0 14 0 15.64453125 1.15625 C17.53406628 3.72645327 17.29870109 5.53680231 17.1875 8.6875 C17.16042969 9.68136719 17.13335938 10.67523437 17.10546875 11.69921875 C17.07066406 12.45847656 17.03585937 13.21773437 17 14 C16.01 14 15.02 14 14 14 C13.67 10.37 13.34 6.74 13 3 C11.68 3 10.36 3 9 3 C8.67 6.63 8.34 10.26 8 14 C7.01 14 6.02 14 5 14 C4.67 10.37 4.34 6.74 4 3 C2.68 2.67 1.36 2.34 0 2 C0 1.34 0 0.68 0 0 Z " fill="#555557" transform="translate(568,752)"/>
<path d="M0 0 C3.52421982 1.83828181 6.23135852 4.32121229 9.0859375 7.0390625 C9.65594482 7.57305664 10.22595215 8.10705078 10.81323242 8.65722656 C15.05594237 12.67695403 19.03275627 16.86649298 22.7109375 21.4140625 C22.3809375 22.0740625 22.0509375 22.7340625 21.7109375 23.4140625 C20.96263672 22.59615234 20.96263672 22.59615234 20.19921875 21.76171875 C13.05397258 14.25728606 4.61596283 6.91750664 -5.2890625 3.4140625 C-5.2890625 2.4240625 -5.2890625 1.4340625 -5.2890625 0.4140625 C-2.2890625 -0.5859375 -2.2890625 -0.5859375 0 0 Z " fill="#4E4E4E" transform="translate(385.2890625,232.5859375)"/>
<path d="M0 0 C-4.1564279 4.52317154 -8.15302271 6.86120908 -13.8125 9.125 C-16.18290061 10.74713477 -16.18290061 10.74713477 -16.3203125 13.015625 C-16.37832031 14.18351562 -16.37832031 14.18351562 -16.4375 15.375 C-16.65619603 19.59173278 -16.65619603 19.59173278 -18.3125 21.55859375 C-19.84712377 22.74276257 -21.42267345 23.87333818 -23 25 C-24.37254588 27.14980497 -24.37254588 27.14980497 -25 29 C-25.66 28.67 -26.32 28.34 -27 28 C-23.30928598 22.27302997 -23.30928598 22.27302997 -21.3671875 20.55859375 C-19.5857049 18.52770359 -19.81867685 17.52713273 -19.9375 14.875 C-19.59461043 10.12130372 -17.65079082 8.16961996 -14.1875 5 C-9.33396713 0.87055402 -6.282659 -0.17451831 0 0 Z " fill="#585858" transform="translate(479,264)"/>
<path d="M0 0 C0 0.99 0 1.98 0 3 C1.32 3.66 2.64 4.32 4 5 C-6.89 5.495 -6.89 5.495 -18 6 C-18.33 5.01 -18.66 4.02 -19 3 C-14.11934721 -2.61275071 -6.74878788 -1.63606979 0 0 Z " fill="#4F4F4F" transform="translate(488,248)"/>
<path d="M0 0 C-0.33 0.66 -0.66 1.32 -1 2 C-2.8984375 2.5625 -2.8984375 2.5625 -5.375 3 C-6.26703125 3.16242188 -7.1590625 3.32484375 -8.078125 3.4921875 C-9.04234375 3.65976563 -10.0065625 3.82734375 -11 4 C-13.04175961 4.3744936 -15.08342929 4.74947793 -17.125 5.125 C-18.74983921 5.41756108 -20.37478005 5.70956145 -22 6 C-22.33 4.02 -22.66 2.04 -23 0 C-15.15597666 -0.72526532 -7.80255144 -1.21074074 0 0 Z " fill="#404041" transform="translate(743,161)"/>
<path d="M0 0 C0.99 0 1.98 0 3 0 C4.32 2.97 5.64 5.94 7 9 C7.99 6.03 8.98 3.06 10 0 C10.99 0 11.98 0 13 0 C11.29543005 6.638122 9.36414157 13.5726398 5 19 C2.83984375 19.74609375 2.83984375 19.74609375 1 20 C1 19.34 1 18.68 1 18 C1.99 17.34 2.98 16.68 4 16 C3.52952548 10.54249558 2.66693086 6.87004766 0 2 C0 1.34 0 0.68 0 0 Z " fill="#525254" transform="translate(325,752)"/>
<path d="M0 0 C0.66 0 1.32 0 2 0 C2.33 3.96 2.66 7.92 3 12 C4.65 11.67 6.3 11.34 8 11 C8.33 7.37 8.66 3.74 9 0 C9.99 0 10.98 0 12 0 C12 4.62 12 9.24 12 14 C10.39125 14.04125 8.7825 14.0825 7.125 14.125 C6.22007812 14.14820313 5.31515625 14.17140625 4.3828125 14.1953125 C2 14 2 14 0 12 C-0.1953125 9.1796875 -0.1953125 9.1796875 -0.125 5.875 C-0.10695313 4.77929688 -0.08890625 3.68359375 -0.0703125 2.5546875 C-0.04710937 1.71164062 -0.02390625 0.86859375 0 0 Z " fill="#4A4A4B" transform="translate(273,752)"/>
<path d="M0 0 C0.99 0 1.98 0 3 0 C4.32 2.97 5.64 5.94 7 9 C7.99 6.03 8.98 3.06 10 0 C10.99 0 11.98 0 13 0 C11.06808298 6.50254996 8.91846125 13.40536978 5 19 C2.83984375 19.78125 2.83984375 19.78125 1 20 C1 19.34 1 18.68 1 18 C1.99 17.34 2.98 16.68 4 16 C3.52952548 10.54249558 2.66693086 6.87004766 0 2 C0 1.34 0 0.68 0 0 Z " fill="#4D4D4F" transform="translate(685,752)"/>
<path d="M0 0 C1.32 0 2.64 0 4 0 C5.546875 -0.061875 5.546875 -0.061875 7.125 -0.125 C10 0 10 0 12 2 C12.1953125 4.8203125 12.1953125 4.8203125 12.125 8.125 C12.10695313 9.22070312 12.08890625 10.31640625 12.0703125 11.4453125 C12.04710937 12.28835938 12.02390625 13.13140625 12 14 C11.01 14 10.02 14 9 14 C8.67 10.37 8.34 6.74 8 3 C6.35 3.33 4.7 3.66 3 4 C2.67 7.3 2.34 10.6 2 14 C1.34 14 0.68 14 0 14 C0 9.38 0 4.76 0 0 Z " fill="#48484A" transform="translate(392,752)"/>
<path d="M0 0 C0 0.66 0 1.32 0 2 C-2.31 2.33 -4.62 2.66 -7 3 C-7 4.32 -7 5.64 -7 7 C-5.25522367 8.57518451 -5.25522367 8.57518451 -3 9.75 C-2.2575 10.17796875 -1.515 10.6059375 -0.75 11.046875 C-0.1725 11.36140625 0.405 11.6759375 1 12 C0.74438677 14.3431213 0.40729228 16.67843403 0 19 C-3.21451269 20.60725635 -6.43612536 20.05748185 -10 20 C-10 19.34 -10 18.68 -10 18 C-6.04 17.505 -6.04 17.505 -2 17 C-2 15.68 -2 14.36 -2 13 C-2.94875 12.54625 -3.8975 12.0925 -4.875 11.625 C-8 10 -8 10 -10 8 C-10.3125 5 -10.3125 5 -10 2 C-6.3558226 -0.4294516 -4.28758728 -0.16179575 0 0 Z " fill="#414143" transform="translate(611,746)"/>
<path d="M0 0 C2.5 0.25 2.5 0.25 4.5 2.25 C4.75 5.25 4.75 5.25 4.5 8.25 C2.5 10.25 2.5 10.25 0 10.5 C-2.5 10.25 -2.5 10.25 -4.5 8.25 C-4.75 5.25 -4.75 5.25 -4.5 2.25 C-2.5 0.25 -2.5 0.25 0 0 Z " fill="#F1F1F2" transform="translate(644.5,753.75)"/>
<path d="M0 0 C2.5 0.25 2.5 0.25 4.5 2.25 C4.75 5.25 4.75 5.25 4.5 8.25 C2.5 10.25 2.5 10.25 0 10.5 C-2.5 10.25 -2.5 10.25 -4.5 8.25 C-4.75 5.25 -4.75 5.25 -4.5 2.25 C-2.5 0.25 -2.5 0.25 0 0 Z " fill="#F2F2F2" transform="translate(259.5,753.75)"/>
<path d="M0 0 C2.5625 0.1875 2.5625 0.1875 4.5625 2.1875 C4.89583333 7.52083333 4.89583333 7.52083333 3.5625 10.1875 C1.56295254 10.23004356 -0.43791636 10.22830783 -2.4375 10.1875 C-3.4375 9.1875 -3.4375 9.1875 -3.5703125 7.375 C-3.56773437 6.653125 -3.56515625 5.93125 -3.5625 5.1875 C-3.56507813 4.465625 -3.56765625 3.74375 -3.5703125 3 C-3.36228014 0.16097012 -2.84416607 0.21878201 0 0 Z " fill="#F8F8F8" transform="translate(663.4375,753.8125)"/>
<path d="M0 0 C2.38779861 0.84728338 4.61965787 1.76291449 6.7734375 3.10546875 C15.56518929 8.57926057 25.87378577 10.42516108 36 12 C36 12.33 36 12.66 36 13 C35.05125 13.144375 34.1025 13.28875 33.125 13.4375 C30.1065506 13.82935399 30.1065506 13.82935399 28 15 C18.5725081 12.506779 5.54732017 8.32098026 0 0 Z " fill="#737373" transform="translate(311,396)"/>
<path d="M0 0 C6.62766724 0.32595085 12.05427796 2.02713898 18 5 C7.44 5 -3.12 5 -14 5 C-14 4.67 -14 4.34 -14 4 C-13.24074219 3.96261719 -12.48148438 3.92523438 -11.69921875 3.88671875 C-10.70535156 3.82097656 -9.71148438 3.75523437 -8.6875 3.6875 C-7.70136719 3.62949219 -6.71523438 3.57148438 -5.69921875 3.51171875 C-2.65280098 2.9341779 -2.06472867 2.15804974 0 0 Z " fill="#535353" transform="translate(655,257)"/>
<path d="M0 0 C0.66 0 1.32 0 2 0 C2.33 3.63 2.66 7.26 3 11 C4.65 10.67 6.3 10.34 8 10 C8.33 6.7 8.66 3.4 9 0 C9.66 0 10.32 0 11 0 C11 4.62 11 9.24 11 14 C7.7 14 4.4 14 1 14 C-0.38226016 11.23547967 -0.09525387 8.9538637 -0.0625 5.875 C-0.05347656 4.77929688 -0.04445313 3.68359375 -0.03515625 2.5546875 C-0.02355469 1.71164062 -0.01195312 0.86859375 0 0 Z " fill="#434345" transform="translate(619,752)"/>
<path d="M0 0 C2.64 0 5.28 0 8 0 C9.12765152 2.73858226 10.069542 5.29555352 10.75 8.1875 C11.75495967 11.27650854 11.75495967 11.27650854 14.9375 12.375 C17.96896454 13.09998001 17.96896454 13.09998001 21 13 C21.80967438 15.91482778 22.21845993 17.46113217 21.0625 20.3125 C20.711875 20.869375 20.36125 21.42625 20 22 C20 20.02 20 18.04 20 16 C18.7625 16.12375 17.525 16.2475 16.25 16.375 C12.66339969 16.3559561 12.2541355 16.2541355 9.5625 13.5625 C7.70294491 9.3227144 7.20391071 5.58799099 7 1 C4.69 1 2.38 1 0 1 C0 0.67 0 0.34 0 0 Z " fill="#515151" transform="translate(458,292)"/>
<path d="M0 0 C3.17833021 1.46580526 5.82343563 3.28523374 8.625 5.375 C16.20943313 10.73199315 23.95239377 13.24885041 33 15 C33 15.99 33 16.98 33 18 C22.77874319 17.31858288 10.55108494 11.48857273 3.265625 4.28515625 C2.11242543 2.90844328 1.04383775 1.46137285 0 0 Z " fill="#767676" transform="translate(400,197)"/>
<path d="M0 0 C0.66 0 1.32 0 2 0 C2 1.32 2 2.64 2 4 C3.32 4 4.64 4 6 4 C6 4.66 6 5.32 6 6 C4.68 6 3.36 6 2 6 C2.11398665 7.62580966 2.24155659 9.25067157 2.375 10.875 C2.44460938 11.77992188 2.51421875 12.68484375 2.5859375 13.6171875 C2.79568132 16.17941903 2.79568132 16.17941903 5 18 C0.125 17.125 0.125 17.125 -1 16 C-1.07205511 14.31391034 -1.08386068 12.62499341 -1.0625 10.9375 C-1.05347656 10.01839844 -1.04445313 9.09929688 -1.03515625 8.15234375 C-1.02355469 7.44207031 -1.01195312 6.73179687 -1 6 C-1.66 6 -2.32 6 -3 6 C-3 5.34 -3 4.68 -3 4 C-2.34 4 -1.68 4 -1 4 C-0.67 2.68 -0.34 1.36 0 0 Z " fill="#666667" transform="translate(303,748)"/>
<path d="M0 0 C0.33 0.66 0.66 1.32 1 2 C1.66 2 2.32 2 3 2 C3 6.29 3 10.58 3 15 C3.66 15 4.32 15 5 15 C5 15.99 5 16.98 5 18 C3.02 18 1.04 18 -1 18 C-1.11269443 11.8894576 -0.89604368 6.04829486 0 0 Z " fill="#424244" transform="translate(523,488)"/>
<path d="M0 0 C4.88433373 -0.19537335 8.42061289 0.37813373 13 2 C15.32694964 2.37531446 17.65976685 2.71917202 20 3 C20 3.33 20 3.66 20 4 C19.21625 4.12375 18.4325 4.2475 17.625 4.375 C14.85942178 4.79117993 14.85942178 4.79117993 13 7 C13 6.01 13 5.02 13 4 C12.01 4 11.02 4 10 4 C10.33 5.98 10.66 7.96 11 10 C9.35 10 7.7 10 6 10 C6 9.34 6 8.68 6 8 C4.54166642 6.37485532 4.54166642 6.37485532 3 5 C3.66 4.01 4.32 3.02 5 2 C3.35 1.67 1.7 1.34 0 1 C0 0.67 0 0.34 0 0 Z " fill="#4E4E50" transform="translate(284,339)"/>
<path d="M0 0 C0.33 0.66 0.66 1.32 1 2 C0.69320312 2.85851562 0.38640625 3.71703125 0.0703125 4.6015625 C-1.21278387 8.67562763 -1.22445081 12.14451575 -1.125 16.375 C-1.11597656 17.11105469 -1.10695313 17.84710938 -1.09765625 18.60546875 C-1.07430144 20.4037888 -1.03843836 22.20193911 -1 24 C-2.32 24.33 -3.64 24.66 -5 25 C-5.30021297 16.07700336 -5.35314282 7.54306488 0 0 Z " fill="#5A5A5A" transform="translate(573,478)"/>
<path d="M0 0 C0.556875 0.495 1.11375 0.99 1.6875 1.5 C1.13924561 1.58040527 0.59099121 1.66081055 0.02612305 1.74365234 C-14.68076586 3.89452206 -14.68076586 3.89452206 -29.3125 6.5 C-29.3125 5.84 -29.3125 5.18 -29.3125 4.5 C-25.75289436 3.48949663 -22.18939478 2.49346596 -18.625 1.5 C-17.61759766 1.21382813 -16.61019531 0.92765625 -15.57226562 0.6328125 C-14.59580078 0.36210937 -13.61933594 0.09140625 -12.61328125 -0.1875 C-11.27003784 -0.56455078 -11.27003784 -0.56455078 -9.8996582 -0.94921875 C-6.03156031 -1.77269981 -3.38282403 -2.19426424 0 0 Z " fill="#717171" transform="translate(449.3125,255.5)"/>
<path d="M0 0 C3.43216282 1.71608141 3.94904508 5.31591613 5.1796875 8.7890625 C6.47798454 13.87096804 6.32692675 18.79641584 6 24 C5.67 23.01 5.34 22.02 5 21 C4.34 21 3.68 21 3 21 C2.67 22.65 2.34 24.3 2 26 C1.01 26 0.02 26 -1 26 C-0.505 24.88625 -0.01 23.7725 0.5 22.625 C3.35651626 14.96249666 2.27185095 7.66749695 0 0 Z " fill="#555556" transform="translate(596,478)"/>
<path d="M0 0 C3.3 0 6.6 0 10 0 C10 0.33 10 0.66 10 1 C7.36 1 4.72 1 2 1 C2 3.31 2 5.62 2 8 C4.64 8 7.28 8 10 8 C10 8.66 10 9.32 10 10 C7.36 10 4.72 10 2 10 C2 12.97 2 15.94 2 19 C1.34 19 0.68 19 0 19 C0 12.73 0 6.46 0 0 Z " fill="#3D3D3F" transform="translate(518,747)"/>
<path d="M0 0 C1.4540625 0.0309375 1.4540625 0.0309375 2.9375 0.0625 C2.9375 0.7225 2.9375 1.3825 2.9375 2.0625 C1.2875 2.0625 -0.3625 2.0625 -2.0625 2.0625 C-1.7325 3.0525 -1.4025 4.0425 -1.0625 5.0625 C-0.4025 5.35125 0.2575 5.64 0.9375 5.9375 C2.9375 7.0625 2.9375 7.0625 3.8125 9.5625 C3.85375 10.3875 3.895 11.2125 3.9375 12.0625 C1.9375 14.0625 1.9375 14.0625 -1.6875 14.1875 C-2.80125 14.14625 -3.915 14.105 -5.0625 14.0625 C-5.0625 13.4025 -5.0625 12.7425 -5.0625 12.0625 C-3.0825 12.0625 -1.1025 12.0625 0.9375 12.0625 C-0.29184015 8.37447956 -2.00109378 7.33893027 -5.0625 5.0625 C-3.9375 0.08035714 -3.9375 0.08035714 0 0 Z " fill="#4C4C4E" transform="translate(480.0625,751.9375)"/>
<path d="M0 0 C0.66 0 1.32 0 2 0 C2 5.94 2 11.88 2 18 C0.68 18 -0.64 18 -2 18 C-2.3690205 5.33029613 -2.3690205 5.33029613 0 0 Z " fill="#686869" transform="translate(611,484)"/>
<path d="M0 0 C0.66 0 1.32 0 2 0 C2 3.63 2 7.26 2 11 C-5.71484375 11.09765625 -5.71484375 11.09765625 -8 11 C-9 10 -9 10 -9.1875 7.5625 C-9 5 -9 5 -7 3 C-6.01 3.33 -5.02 3.66 -4 4 C-4.66 5.32 -5.32 6.64 -6 8 C-4.35 7.67 -2.7 7.34 -1 7 C-0.67 4.69 -0.34 2.38 0 0 Z " fill="#505052" transform="translate(543,755)"/>
<path d="M0 0 C2.97 0.495 2.97 0.495 6 1 C6 1.66 6 2.32 6 3 C7.62553283 4.70680947 9.29115995 6.37660195 11 8 C10.01 8.495 10.01 8.495 9 9 C7.09905619 8.26630239 5.19927878 7.52927441 3.30859375 6.76953125 C-0.38614002 5.53795333 -4.131501 5.25969091 -8 5 C-8 4.67 -8 4.34 -8 4 C-4.535 3.505 -4.535 3.505 -1 3 C-0.67 2.01 -0.34 1.02 0 0 Z " fill="#555555" transform="translate(370,410)"/>
<path d="M0 0 C1.76288891 2.64433337 2.42403668 4.17059275 3.25 7.125 C4.93229115 12.40480608 7.78362401 16.53828623 11 21 C11.66 21.99 12.32 22.98 13 24 C6.10015358 21.12506399 1.61899563 13.35231145 -1.48828125 6.796875 C-2 5 -2 5 -1.25 2 C-0.8375 1.34 -0.425 0.68 0 0 Z " fill="#5F5F5F" transform="translate(482,518)"/>
<path d="M0 0 C6.3833448 -0.48176187 6.3833448 -0.48176187 9 1.5625 C10.42244091 5.02969973 9.85063855 7.4011446 9 11 C8.01 12.485 8.01 12.485 7 14 C4.03 13.505 4.03 13.505 1 13 C1 12.67 1 12.34 1 12 C2.65 12 4.3 12 6 12 C6 9.36 6 6.72 6 4 C4.02 3.34 2.04 2.68 0 2 C0 1.34 0 0.68 0 0 Z " fill="#59595B" transform="translate(661,752)"/>
<path d="M0 0 C4.29 0 8.58 0 13 0 C12.67 0.99 12.34 1.98 12 3 C8.45622246 4.50524531 4.53293864 4.09752721 0.75 4.0625 C-0.51328125 4.05347656 -1.7765625 4.04445313 -3.078125 4.03515625 C-4.04234375 4.02355469 -5.0065625 4.01195312 -6 4 C-6 3.67 -6 3.34 -6 3 C-5.195625 2.87625 -4.39125 2.7525 -3.5625 2.625 C-2.716875 2.41875 -1.87125 2.2125 -1 2 C-0.67 1.34 -0.34 0.68 0 0 Z " fill="#3E3E3E" transform="translate(324,387)"/>
<path d="M0 0 C2.31 0 4.62 0 7 0 C7 0.66 7 1.32 7 2 C6.01 2.66 5.02 3.32 4 4 C3.41810734 6.42521494 3.41810734 6.42521494 3.3125 9.125 C3.24675781 10.03507813 3.18101562 10.94515625 3.11328125 11.8828125 C3.07589844 12.58148437 3.03851563 13.28015625 3 14 C2.01 14 1.02 14 0 14 C0 9.38 0 4.76 0 0 Z " fill="#5C5C5E" transform="translate(314,752)"/>
<path d="M0 0 C0.66 0.33 1.32 0.66 2 1 C0.76075855 5.95696581 -0.78577758 8.11658466 -5 11 C-5.99 10.34 -6.98 9.68 -8 9 C-6.95125002 6.37812506 -6.35068687 5.20628639 -3.875 3.75 C-3.25625 3.5025 -2.6375 3.255 -2 3 C-2 2.34 -2 1.68 -2 1 C-1.34 0.67 -0.68 0.34 0 0 Z " fill="#404041" transform="translate(640,502)"/>
<path d="M0 0 C2.375 -0.125 2.375 -0.125 5 0 C5.66 0.66 6.32 1.32 7 2 C6.44444444 6.55555556 6.44444444 6.55555556 5 8 C3.33382885 8.04063832 1.66611905 8.042721 0 8 C0 5.36 0 2.72 0 0 Z " fill="#F6F6F6" transform="translate(238,748)"/>
<path d="M0 0 C1.65 0.33 3.3 0.66 5 1 C4.34 7.27 3.68 13.54 3 20 C2.67 20 2.34 20 2 20 C2 15.71 2 11.42 2 7 C1.34 7 0.68 7 0 7 C-1.125 2.25 -1.125 2.25 0 0 Z " fill="#555556" transform="translate(524,483)"/>
<path d="M0 0 C0.33 0.99 0.66 1.98 1 3 C1.99 3 2.98 3 4 3 C4.66 2.34 5.32 1.68 6 1 C5.5020163 4.73487777 5.12508244 6.81237635 3 10 C-0.125 11.1875 -0.125 11.1875 -3 12 C-2 8 -1 4 0 0 Z " fill="#4F4F4F" transform="translate(475,320)"/>
<path d="M0 0 C4.24908336 1.59846469 6.82225739 4.8130392 9.75 8.125 C10.25660156 8.68832031 10.76320313 9.25164062 11.28515625 9.83203125 C12.52884532 11.21651531 13.76516305 12.60761488 15 14 C14.67 14.66 14.34 15.32 14 16 C13.43152344 15.40832031 12.86304688 14.81664062 12.27734375 14.20703125 C7.77248251 9.5968811 3.38220575 5.5499655 -2 2 C-1.34 1.34 -0.68 0.68 0 0 Z " fill="#575757" transform="translate(393,240)"/>
<path d="M0 0 C1.17539996 0.92652701 2.34010577 1.86663387 3.5 2.8125 C4.1496875 3.33457031 4.799375 3.85664063 5.46875 4.39453125 C7 6 7 6 7 9 C5.02 9.66 3.04 10.32 1 11 C-0.625 8.875 -0.625 8.875 -2 6 C-1.1875 2.6875 -1.1875 2.6875 0 0 Z " fill="#4A4A4B" transform="translate(292,371)"/>
<path d="M0 0 C0.928125 0.0825 1.85625 0.165 2.8125 0.25 C2.1525 1.9 1.4925 3.55 0.8125 5.25 C1.8025 6.24 2.7925 7.23 3.8125 8.25 C0.8425 7.92 -2.1275 7.59 -5.1875 7.25 C-6.1875 4.25 -6.1875 4.25 -5.125 2.0625 C-3.1875 0.25 -3.1875 0.25 0 0 Z " fill="#3D3D3F" transform="translate(287.1875,339.75)"/>
<path d="M0 0 C0.99 0.33 1.98 0.66 3 1 C2.3503125 2.3921875 2.3503125 2.3921875 1.6875 3.8125 C-0.42870488 8.71000272 -1.6847374 13.84155872 -3 19 C-3.99 19 -4.98 19 -6 19 C-4.3186083 12.51292846 -2.46937673 6.2322365 0 0 Z " fill="#464648" transform="translate(376,747)"/>
<path d="M0 0 C0.99 0 1.98 0 3 0 C3 4.62 3 9.24 3 14 C2.01 14 1.02 14 0 14 C0 9.38 0 4.76 0 0 Z " fill="#5B5B5C" transform="translate(411,752)"/>
<path d="M0 0 C3.63 0.66 7.26 1.32 11 2 C10.67 3.98 10.34 5.96 10 8 C5.27745665 6.50867052 5.27745665 6.50867052 3.875 3.9375 C3.58625 3.298125 3.2975 2.65875 3 2 C2.01 1.67 1.02 1.34 0 1 C0 0.67 0 0.34 0 0 Z " fill="#404040" transform="translate(375,412)"/>
<path d="M0 0 C-0.4793247 4.31392226 -1.7457985 6.16569547 -5 9 C-6.70840281 7.36587557 -7.93453047 6.13093906 -9 4 C-8.34 4 -7.68 4 -7 4 C-7 3.34 -7 2.68 -7 2 C-4.35261084 0.5393715 -3.10551666 0 0 0 Z " fill="#3E3E40" transform="translate(469,342)"/>
<path d="M0 0 C0.66 0 1.32 0 2 0 C2 0.66 2 1.32 2 2 C2.66 2.33 3.32 2.66 4 3 C3.67 6.63 3.34 10.26 3 14 C2.01 14 1.02 14 0 14 C0 9.38 0 4.76 0 0 Z " fill="#5D5D5F" transform="translate(564,752)"/>
<path d="M0 0 C0.99 0 1.98 0 3 0 C3 4.62 3 9.24 3 14 C2.34 14 1.68 14 1 14 C1 13.34 1 12.68 1 12 C0.34 11.67 -0.32 11.34 -1 11 C-0.67 7.37 -0.34 3.74 0 0 Z " fill="#5C5C5D" transform="translate(282,752)"/>
<path d="M0 0 C3.7532578 1.50298243 5.60207495 3.65045084 8.0625 6.8125 C8.73410156 7.66457031 9.40570313 8.51664063 10.09765625 9.39453125 C15.10162031 16.24800974 15.10162031 16.24800974 14.6875 19.3125 C14.460625 19.869375 14.23375 20.42625 14 21 C13.74347656 20.46632812 13.48695313 19.93265625 13.22265625 19.3828125 C10.17176574 13.44538922 6.40790403 8.87708103 1.79296875 4.06640625 C0 2 0 2 0 0 Z " fill="#6D6D6D" transform="translate(377,161)"/>
<path d="M0 0 C2.4375 0.3125 2.4375 0.3125 4.4375 2.3125 C4.6328125 5.1328125 4.6328125 5.1328125 4.5625 8.4375 C4.54445313 9.53320312 4.52640625 10.62890625 4.5078125 11.7578125 C4.48460937 12.60085938 4.46140625 13.44390625 4.4375 14.3125 C3.7775 14.3125 3.1175 14.3125 2.4375 14.3125 C2.1075 10.6825 1.7775 7.0525 1.4375 3.3125 C-0.8725 3.3125 -3.1825 3.3125 -5.5625 3.3125 C-3.75137927 1.02476855 -2.95529457 0.36040178 0 0 Z " fill="#3C3C3F" transform="translate(436.5625,751.6875)"/>
<path d="M0 0 C0.66 0 1.32 0 2 0 C2.92333998 8.80592761 2.92333998 8.80592761 0.734375 11.63671875 C-0.79984973 12.81717807 -2.39923395 13.91147909 -4 15 C-5.37254588 17.14980497 -5.37254588 17.14980497 -6 19 C-6.66 18.67 -7.32 18.34 -8 18 C-4.30909091 12.27272727 -4.30909091 12.27272727 -2.40625 10.59375 C-0.56502321 8.50702631 -0.51146286 7.05818749 -0.3125 4.3125 C-0.24675781 3.50425781 -0.18101562 2.69601562 -0.11328125 1.86328125 C-0.07589844 1.24839844 -0.03851563 0.63351562 0 0 Z " fill="#666666" transform="translate(460,274)"/>
<path d="M0 0 C2.33333333 0 4.66666667 0 7 0 C7 0.66 7 1.32 7 2 C6.35546875 2.22429688 5.7109375 2.44859375 5.046875 2.6796875 C2.75611148 3.82889456 2.75611148 3.82889456 2.390625 6.3828125 C2.34421875 7.28773438 2.2978125 8.19265625 2.25 9.125 C2.19328125 10.03507813 2.1365625 10.94515625 2.078125 11.8828125 C2.03945313 12.93082031 2.03945313 12.93082031 2 14 C1.34 14 0.68 14 0 14 C0 9.38 0 4.76 0 0 Z " fill="#3E3E40" transform="translate(552,752)"/>
<path d="M0 0 C3.11257569 0 5.10765685 0.17361624 8 1 C7.195625 1.28875 6.39125 1.5775 5.5625 1.875 C2.4648498 4.44378309 2.54951905 5.30950809 2.1875 9.1875 C2.1026414 10.79063941 2.03312469 12.39495804 2 14 C1.34 14 0.68 14 0 14 C0 9.38 0 4.76 0 0 Z " fill="#3E3E40" transform="translate(392,752)"/>
<path d="M0 0 C0 0.66 0 1.32 0 2 C-2.31 2.33 -4.62 2.66 -7 3 C-7 4.32 -7 5.64 -7 7 C-6.34 7.66 -5.68 8.32 -5 9 C-5 9.66 -5 10.32 -5 11 C-8.875 9.125 -8.875 9.125 -10 8 C-10.25 5.0625 -10.25 5.0625 -10 2 C-6.3558226 -0.4294516 -4.28758728 -0.16179575 0 0 Z " fill="#474749" transform="translate(611,746)"/>
<path d="M0 0 C2.27751344 1.47368516 4.02007 3.11435238 6 5 C5.01 5.33 4.02 5.66 3 6 C2.62875 5.505 2.2575 5.01 1.875 4.5 C-0.8023572 2.35811424 -2.64172556 2.73133804 -6 3 C-7.67453799 3.291224 -9.34550895 3.61070799 -11 4 C-7.45710926 0.29606877 -5.22523684 -0.60291194 0 0 Z " fill="#4A4A4A" transform="translate(271,104)"/>
<path d="M0 0 C-0.350625 0.94875 -0.70125 1.8975 -1.0625 2.875 C-2.35026777 5.87060172 -2.35026777 5.87060172 -1 8 C-4 9 -4 9 -6.1875 8.0625 C-6.785625 7.711875 -7.38375 7.36125 -8 7 C-7.8125 5.1875 -7.8125 5.1875 -7 3 C-2.82142857 0 -2.82142857 0 0 0 Z " fill="#484848" transform="translate(553,462)"/>
<path d="M0 0 C2.64 0 5.28 0 8 0 C8 1.32 8 2.64 8 4 C5.03 4 2.06 4 -1 4 C-0.67 2.68 -0.34 1.36 0 0 Z " fill="#383838" transform="translate(362,410)"/>
<path d="M0 0 C2.64 0.33 5.28 0.66 8 1 C7.67 2.65 7.34 4.3 7 6 C5.68 6.33 4.36 6.66 3 7 C0 2.25 0 2.25 0 0 Z " fill="#3F3F40" transform="translate(466,433)"/>
<path d="M0 0 C4.75 0.75 4.75 0.75 7 3 C6.34 3 5.68 3 5 3 C5.33 3.99 5.66 4.98 6 6 C3.625 6.125 3.625 6.125 1 6 C0.34 5.34 -0.32 4.68 -1 4 C-0.625 1.875 -0.625 1.875 0 0 Z " fill="#404042" transform="translate(332,128)"/>
<path d="M0 0 C6.30818278 -0.35706695 6.30818278 -0.35706695 8.9375 1 C10.67278693 4.26642246 10.17982715 7.34351452 10 11 C8 8 8 8 7.25 5.375 C6.8375 4.59125 6.425 3.8075 6 3 C2.94727535 2.10169161 2.94727535 2.10169161 0 2 C0 1.34 0 0.68 0 0 Z " fill="#49494B" transform="translate(256,752)"/>
<path d="M0 0 C0.66 0 1.32 0 2 0 C2.66 2.97 3.32 5.94 4 9 C2.02 9 0.04 9 -2 9 C-1.34 6.03 -0.68 3.06 0 0 Z " fill="#DDDDDE" transform="translate(377,749)"/>
<path d="M0 0 C1.98 0.99 3.96 1.98 6 3 C5.01 3.495 5.01 3.495 4 4 C3.34786708 6.02463255 3.34786708 6.02463255 3 8 C1.68 7.67 0.36 7.34 -1 7 C-1 3 -1 3 0 0 Z " fill="#4C4C4C" transform="translate(576,506)"/>
<path d="M0 0 C0.33 0.66 0.66 1.32 1 2 C-0.15648724 4.98759205 -1.67310583 6.84546836 -4 9 C-4.886875 9.886875 -5.77375 10.77375 -6.6875 11.6875 C-7.450625 12.450625 -8.21375 13.21375 -9 14 C-9.66 13.67 -10.32 13.34 -11 13 C-7.37 8.71 -3.74 4.42 0 0 Z " fill="#515152" transform="translate(325,201)"/>
<path d="M0 0 C0.33 0 0.66 0 1 0 C1 3.96 1 7.92 1 12 C0.67 11.01 0.34 10.02 0 9 C-0.66 9 -1.32 9 -2 9 C-2.33 10.65 -2.66 12.3 -3 14 C-3.99 14 -4.98 14 -6 14 C-5.01 11.36 -4.02 8.72 -3 6 C-2.34 6.33 -1.68 6.66 -1 7 C-0.67 4.69 -0.34 2.38 0 0 Z " fill="#6D6D6D" transform="translate(601,490)"/>
<path d="M0 0 C0.66 0.66 1.32 1.32 2 2 C1.60495559 4.9628331 0.40182371 7.38326241 -1 10 C-2.5625 8.75 -2.5625 8.75 -4 7 C-3.875 4.875 -3.875 4.875 -3 3 C-2.01 2.67 -1.02 2.34 0 2 C0 1.34 0 0.68 0 0 Z " fill="#515152" transform="translate(455,465)"/>
<path d="M0 0 C4.29 0.33 8.58 0.66 13 1 C13 1.33 13 1.66 13 2 C9.35206816 3.27253436 5.8063457 4.32829194 2 5 C2 4.01 2 3.02 2 2 C1.34 2 0.68 2 0 2 C0 1.34 0 0.68 0 0 Z " fill="#3A3A3C" transform="translate(413,421)"/>
<path d="M0 0 C0.33 0.99 0.66 1.98 1 3 C0.360625 3.556875 -0.27875 4.11375 -0.9375 4.6875 C-3.19680987 7.22066561 -3.63149047 8.68341424 -4 12 C-5.65 11.67 -7.3 11.34 -9 11 C-8.06558465 9.72689688 -7.12732889 8.456612 -6.1875 7.1875 C-5.66542969 6.47980469 -5.14335937 5.77210938 -4.60546875 5.04296875 C-3.16871123 3.21468607 -1.68184237 1.60103312 0 0 Z " fill="#505051" transform="translate(217,344)"/>
<path d="M0 0 C5.61 0 11.22 0 17 0 C17 0.33 17 0.66 17 1 C15.43883181 1.33951619 13.87598662 1.67132544 12.3125 2 C11.00732422 2.2784375 11.00732422 2.2784375 9.67578125 2.5625 C7.0034109 2.9994423 4.69584926 3.29392564 2 3 C1.34 2.01 0.68 1.02 0 0 Z " fill="#505050" transform="translate(340,409)"/>
<path d="M0 0 C0.99 0.33 1.98 0.66 3 1 C2.01 1.495 2.01 1.495 1 2 C0.34786708 4.02463255 0.34786708 4.02463255 0 6 C1.98 5.67 3.96 5.34 6 5 C6.33 5.66 6.66 6.32 7 7 C4.26752652 8.36623674 2.01801098 8.128426 -1 8 C-2 7 -2 7 -2.1875 4.5625 C-2 2 -2 2 0 0 Z " fill="#474749" transform="translate(450,758)"/>
<path d="M0 0 C1.32 0.66 2.64 1.32 4 2 C3.67 3.32 3.34 4.64 3 6 C1.35 6.33 -0.3 6.66 -2 7 C-2.125 4.625 -2.125 4.625 -2 2 C-1.34 1.34 -0.68 0.68 0 0 Z " fill="#434343" transform="translate(527,478)"/>
<path d="M0 0 C1.32 0.66 2.64 1.32 4 2 C3.67 3.32 3.34 4.64 3 6 C0.69 6 -1.62 6 -4 6 C-4 5.01 -4 4.02 -4 3 C-3.34 3.33 -2.68 3.66 -2 4 C-2 3.34 -2 2.68 -2 2 C-1.34 2 -0.68 2 0 2 C0 1.34 0 0.68 0 0 Z " fill="#3D3D3D" transform="translate(481,442)"/>
<path d="M0 0 C-1.98 0.99 -1.98 0.99 -4 2 C-3.34 2.66 -2.68 3.32 -2 4 C-5.21451269 5.60725635 -8.43612536 5.05748185 -12 5 C-8.12259529 0.85518807 -5.65610938 -0.15286782 0 0 Z " fill="#383838" transform="translate(474,249)"/>
<path d="M0 0 C0.66 0.66 1.32 1.32 2 2 C1.46428571 5.53571429 1.46428571 5.53571429 0 7 C-2.33297433 7.04092937 -4.66705225 7.04241723 -7 7 C-7 6.34 -7 5.68 -7 5 C-5.02 5 -3.04 5 -1 5 C-1.33 3.68 -1.66 2.36 -2 1 C-1.34 0.67 -0.68 0.34 0 0 Z " fill="#555556" transform="translate(482,759)"/>
<path d="M0 0 C1.65 0 3.3 0 5 0 C4.67 1.65 4.34 3.3 4 5 C2.35 5 0.7 5 -1 5 C-0.67 3.35 -0.34 1.7 0 0 Z " fill="#F1F1F1" transform="translate(451,759)"/>
<path d="M0 0 C-0.33 1.98 -0.66 3.96 -1 6 C-1.61875 5.814375 -2.2375 5.62875 -2.875 5.4375 C-5.04160178 4.76313824 -5.04160178 4.76313824 -7 6 C-7 5.01 -7 4.02 -7 3 C-2.77777778 0 -2.77777778 0 0 0 Z " fill="#3E3E3E" transform="translate(478,329)"/>
<path d="M0 0 C1.32 0.33 2.64 0.66 4 1 C2.38405168 3.04119788 0.7143618 5.04072937 -1 7 C-1.66 7 -2.32 7 -3 7 C-3.66 8.32 -4.32 9.64 -5 11 C-5.66 10.67 -6.32 10.34 -7 10 C-3.535 5.05 -3.535 5.05 0 0 Z " fill="#49494B" transform="translate(237,316)"/>
<path d="M0 0 C2.1875 -0.375 2.1875 -0.375 5 0 C6.99022836 1.83961648 8.38989899 3.79186148 10 6 C4.68559972 6 3.78319167 4.52524678 0 1 C0 0.67 0 0.34 0 0 Z " fill="#4C4C4C" transform="translate(368,155)"/>
<path d="M0 0 C1.08667969 0.11085938 2.17335938 0.22171875 3.29296875 0.3359375 C4.12441406 0.43132812 4.95585937 0.52671875 5.8125 0.625 C5.8125 0.955 5.8125 1.285 5.8125 1.625 C4.389375 1.8415625 4.389375 1.8415625 2.9375 2.0625 C-0.0809494 2.45435399 -0.0809494 2.45435399 -2.1875 3.625 C-4.5369053 3.01739518 -6.87279088 2.35370472 -9.1875 1.625 C-5.54331659 -0.80445561 -4.25826636 -0.4578781 0 0 Z " fill="#646464" transform="translate(341.1875,407.375)"/>
<path d="M0 0 C2.125 0.375 2.125 0.375 4 1 C3.67 1.99 3.34 2.98 3 4 C3.66 4 4.32 4 5 4 C5 4.66 5 5.32 5 6 C1.37 5.01 -2.26 4.02 -6 3 C-4.68 2.67 -3.36 2.34 -2 2 C-1.34 1.34 -0.68 0.68 0 0 Z " fill="#575757" transform="translate(490,274)"/>
<path d="M0 0 C0.99 0.33 1.98 0.66 3 1 C4.1875 4.5625 4.1875 4.5625 5 8 C1.22454612 6.90931332 -1.47043472 6.0916909 -4 3 C-2.68 2.67 -1.36 2.34 0 2 C0 1.34 0 0.68 0 0 Z " fill="#555557" transform="translate(337,131)"/>
<path d="M0 0 C1.61949011 2.57213134 2.04408751 3.67669159 1.625 6.75 C1.41875 7.4925 1.2125 8.235 1 9 C0.01 8.34 -0.98 7.68 -2 7 C-2 6.34 -2 5.68 -2 5 C-2.66 4.67 -3.32 4.34 -4 4 C-2.68 2.68 -1.36 1.36 0 0 Z " fill="#4E4E4E" transform="translate(374,234)"/>
<path d="M0 0 C1.32 0 2.64 0 4 0 C3.67 1.65 3.34 3.3 3 5 C1.35 4.67 -0.3 4.34 -2 4 C-1.34 2.68 -0.68 1.36 0 0 Z " fill="#F8F8F8" transform="translate(538,759)"/>
<path d="M0 0 C0.33 0 0.66 0 1 0 C1.33 4.29 1.66 8.58 2 13 C1.34 12.67 0.68 12.34 0 12 C-0.44921875 10.0390625 -0.44921875 10.0390625 -0.6875 7.625 C-0.77386719 6.83351563 -0.86023438 6.04203125 -0.94921875 5.2265625 C-1 3 -1 3 0 0 Z " fill="#373737" transform="translate(480,509)"/>
<path d="M0 0 C1.875 1.25 1.875 1.25 2.875 4.25 C-2.875 3.375 -2.875 3.375 -5.125 2.25 C-5.125 1.59 -5.125 0.93 -5.125 0.25 C-2.125 -0.75 -2.125 -0.75 0 0 Z " fill="#464646" transform="translate(538.125,510.75)"/>
<path d="M0 0 C0.33 0 0.66 0 1 0 C1.13277344 0.81984375 1.26554688 1.6396875 1.40234375 2.484375 C1.57894531 3.56203125 1.75554687 4.6396875 1.9375 5.75 C2.11152344 6.81734375 2.28554687 7.8846875 2.46484375 8.984375 C2.88704171 11.36347593 3.37202884 13.66915211 4 16 C3.01 15.67 2.02 15.34 1 15 C-0.09506492 11.71480525 -0.09960608 9.26336585 -0.0625 5.8125 C-0.05347656 4.72582031 -0.04445312 3.63914062 -0.03515625 2.51953125 C-0.02355469 1.68808594 -0.01195312 0.85664063 0 0 Z " fill="#505051" transform="translate(195,395)"/>
<path d="M0 0 C0.66 0 1.32 0 2 0 C2 3.63 2 7.26 2 11 C1.34 11 0.68 11 0 11 C-1.37432457 7.18243176 -0.67975039 3.92744671 0 0 Z " fill="#464648" transform="translate(543,755)"/>
<path d="M0 0 C1.5625 1.25 1.5625 1.25 3 3 C2.6875 5.1875 2.6875 5.1875 2 7 C0.68 6.67 -0.64 6.34 -2 6 C-2 4.35 -2 2.7 -2 1 C-1.34 0.67 -0.68 0.34 0 0 Z " fill="#404040" transform="translate(470,485)"/>
<path d="M0 0 C0.99 0.33 1.98 0.66 3 1 C3 1.66 3 2.32 3 3 C3.66 3 4.32 3 5 3 C4.67 4.32 4.34 5.64 4 7 C3.34 6.34 2.68 5.68 2 5 C1.01 5 0.02 5 -1 5 C-0.67 3.35 -0.34 1.7 0 0 Z " fill="#414143" transform="translate(456,470)"/>
<path d="M0 0 C3 1 3 1 4.203125 2.77734375 C4.54859375 3.49019531 4.8940625 4.20304687 5.25 4.9375 C5.78367187 6.00291016 5.78367187 6.00291016 6.328125 7.08984375 C6.54984375 7.72019531 6.7715625 8.35054688 7 9 C6.67 9.66 6.34 10.32 6 11 C4.99126984 9.73608512 3.99328178 8.46359117 3 7.1875 C2.443125 6.47980469 1.88625 5.77210938 1.3125 5.04296875 C0 3 0 3 0 0 Z " fill="#4B4B4B" transform="translate(462,458)"/>
<path d="M0 0 C0.66 0.33 1.32 0.66 2 1 C1.75 2.875 1.75 2.875 1 5 C-1.93995019 7.02755186 -3.27704003 7 -7 7 C-7 6.34 -7 5.68 -7 5 C-5.68 5 -4.36 5 -3 5 C-2.690625 4.360625 -2.38125 3.72125 -2.0625 3.0625 C-1 1 -1 1 0 0 Z " fill="#3F3F40" transform="translate(589,422)"/>
<path d="M0 0 C5.57142857 5.14285714 5.57142857 5.14285714 6 9 C5.01 8.67 4.02 8.34 3 8 C3 7.01 3 6.02 3 5 C1.68 5.33 0.36 5.66 -1 6 C-0.67 4.02 -0.34 2.04 0 0 Z " fill="#535353" transform="translate(336,181)"/>
<path d="M0 0 C4.29 0.33 8.58 0.66 13 1 C13 1.33 13 1.66 13 2 C7.97874074 2.77916092 4.02296004 3.13016601 -1 2 C-0.67 1.34 -0.34 0.68 0 0 Z " fill="#545454" transform="translate(343,440)"/>
<path d="M0 0 C0.99 0.33 1.98 0.66 3 1 C4.66362417 1.34820041 6.32995171 1.68404492 8 2 C8 2.33 8 2.66 8 3 C4.26513121 3.5745952 0.78706732 4 -3 4 C-2.67 3.01 -2.34 2.02 -2 1 C-1.34 0.67 -0.68 0.34 0 0 Z " fill="#DEDEDE" transform="translate(457,289)"/>
<path d="M0 0 C2.91517292 1.07401108 4.77810176 1.77810176 7 4 C5.02 4.66 3.04 5.32 1 6 C1 5.01 1 4.02 1 3 C0.34 3 -0.32 3 -1 3 C-0.67 2.01 -0.34 1.02 0 0 Z " fill="#484848" transform="translate(494,275)"/>
<path d="M0 0 C3.68754757 0.49831724 5.60490662 1.10067643 8 4 C6.25 4.6875 6.25 4.6875 4 5 C1.75 3.6875 1.75 3.6875 0 2 C0 1.34 0 0.68 0 0 Z " fill="#404040" transform="translate(386,236)"/>
<path d="M0 0 C0.33 0.66 0.66 1.32 1 2 C1.66 2 2.32 2 3 2 C3 4.97 3 7.94 3 11 C2.01 10.67 1.02 10.34 0 10 C0 6.7 0 3.4 0 0 Z " fill="#3D3D3E" transform="translate(638,752)"/>
<path d="M0 0 C1.485 0.99 1.485 0.99 3 2 C3.375 5 3.375 5 3 8 C2.01 8.66 1.02 9.32 0 10 C0 9.01 0 8.02 0 7 C-0.185625 5.96875 -0.37125 4.9375 -0.5625 3.875 C-0.706875 2.92625 -0.85125 1.9775 -1 1 C-0.67 0.67 -0.34 0.34 0 0 Z " fill="#414143" transform="translate(244,747)"/>
<path d="M0 0 C2.97 0.495 2.97 0.495 6 1 C5.67 2.32 5.34 3.64 5 5 C2.03 4.505 2.03 4.505 -1 4 C-0.67 2.68 -0.34 1.36 0 0 Z " fill="#393939" transform="translate(310,384)"/>
<path d="M0 0 C0.66 0.33 1.32 0.66 2 1 C2 2.65 2 4.3 2 6 C0.35 6.33 -1.3 6.66 -3 7 C-2.25 2.25 -2.25 2.25 0 0 Z " fill="#3C3C3C" transform="translate(515,303)"/>
<path d="M0 0 C-0.33 4.29 -0.66 8.58 -1 13 C-1.33 13 -1.66 13 -2 13 C-2.03738281 12.22914063 -2.07476562 11.45828125 -2.11328125 10.6640625 C-2.17902344 9.66117188 -2.24476563 8.65828125 -2.3125 7.625 C-2.37050781 6.62726562 -2.42851562 5.62953125 -2.48828125 4.6015625 C-2.65714844 3.74304688 -2.82601563 2.88453125 -3 2 C-3.99 1.34 -4.98 0.68 -6 0 C-3 -1 -3 -1 0 0 Z " fill="#7A7A7B" transform="translate(403,753)"/>
<path d="M0 0 C0.66 0.33 1.32 0.66 2 1 C0.88121617 2.17262904 -0.24523051 3.33795138 -1.375 4.5 C-2.00148438 5.1496875 -2.62796875 5.799375 -3.2734375 6.46875 C-5 8 -5 8 -7 8 C-5.50902342 4.2047869 -3.24299151 2.38957269 0 0 Z " fill="#E4E4E4" transform="translate(510,515)"/>
<path d="M0 0 C0.99 0.33 1.98 0.66 3 1 C3.33 1.99 3.66 2.98 4 4 C3.01 4.33 2.02 4.66 1 5 C0.34 5.66 -0.32 6.32 -1 7 C-1.33 5.35 -1.66 3.7 -2 2 C-1.34 2 -0.68 2 0 2 C0 1.34 0 0.68 0 0 Z " fill="#424242" transform="translate(507,287)"/>
<path d="M0 0 C0.66 0 1.32 0 2 0 C0.25 5.75 0.25 5.75 -2 8 C-2.99 8 -3.98 8 -5 8 C-5 7.34 -5 6.68 -5 6 C-4.360625 5.525625 -3.72125 5.05125 -3.0625 4.5625 C-0.71627037 3.0908635 -0.71627037 3.0908635 0 0 Z " fill="#39393C" transform="translate(331,764)"/>
<path d="M0 0 C0.66 0 1.32 0 2 0 C0.25 5.75 0.25 5.75 -2 8 C-2.99 8 -3.98 8 -5 8 C-5 7.34 -5 6.68 -5 6 C-4.360625 5.525625 -3.72125 5.05125 -3.0625 4.5625 C-0.71627037 3.0908635 -0.71627037 3.0908635 0 0 Z " fill="#3B3B3D" transform="translate(691,764)"/>
<path d="M0 0 C2.64 0 5.28 0 8 0 C8 0.66 8 1.32 8 2 C9.32 2 10.64 2 12 2 C11.67 2.66 11.34 3.32 11 4 C7.37 3.01 3.74 2.02 0 1 C0 0.67 0 0.34 0 0 Z " fill="#545456" transform="translate(423,428)"/>
<path d="M0 0 C1.98 0.66 3.96 1.32 6 2 C5.67 2.66 5.34 3.32 5 4 C2.4375 4.625 2.4375 4.625 0 5 C0 3.35 0 1.7 0 0 Z " fill="#3E3E40" transform="translate(455,355)"/>
<path d="M0 0 C0.66 0 1.32 0 2 0 C3.28317892 3.84953676 3.06643637 6.94738135 3 11 C2.67 11 2.34 11 2 11 C0.57741188 7.17679443 -0.24042276 4.08718695 0 0 Z " fill="#69696A" transform="translate(631,346)"/>
<path d="M0 0 C0.33 0 0.66 0 1 0 C1.03738281 0.61488281 1.07476562 1.22976563 1.11328125 1.86328125 C1.17902344 2.67152344 1.24476563 3.47976563 1.3125 4.3125 C1.37050781 5.11300781 1.42851562 5.91351562 1.48828125 6.73828125 C2.08206694 9.36272334 2.95780294 10.30820672 5 12 C3.35 11.67 1.7 11.34 0 11 C0 7.37 0 3.74 0 0 Z " fill="#262628" transform="translate(303,754)"/>
<path d="M0 0 C0.99 0 1.98 0 3 0 C3.66 1.98 4.32 3.96 5 6 C4.01 6.33 3.02 6.66 2 7 C1.34 4.69 0.68 2.38 0 0 Z " fill="#606061" transform="translate(685,752)"/>
<path d="M0 0 C2.475 0.495 2.475 0.495 5 1 C4.67 2.32 4.34 3.64 4 5 C3.01 5 2.02 5 1 5 C0.67 3.35 0.34 1.7 0 0 Z " fill="#3F3F3F" transform="translate(571,505)"/>
<path d="M0 0 C0.99 0.99 1.98 1.98 3 3 C2.67 3.99 2.34 4.98 2 6 C0.68 5.34 -0.64 4.68 -2 4 C-1 1 -1 1 0 0 Z " fill="#3B3B3B" transform="translate(476,497)"/>
<path d="M0 0 C0.66 0.33 1.32 0.66 2 1 C0.68 3.31 -0.64 5.62 -2 8 C-2.99 7.67 -3.98 7.34 -5 7 C-3.35 4.69 -1.7 2.38 0 0 Z " fill="#545455" transform="translate(582,355)"/>
<path d="M0 0 C0.5775 0.61875 1.155 1.2375 1.75 1.875 C3.80249821 3.81347053 5.43366582 4.90014249 8 6 C6.02 6.33 4.04 6.66 2 7 C0 4 0 4 0 0 Z " fill="#4E4E4E" transform="translate(467,300)"/>
<path d="M0 0 C0 0.66 0 1.32 0 2 C-2.70879335 3.35439668 -5.00933268 3.06501451 -8 3 C-5.53387212 -0.1151089 -3.89156016 -0.31553191 0 0 Z " fill="#373737" transform="translate(454,253)"/>
<path d="M0 0 C0.99 0.33 1.98 0.66 3 1 C3 2.65 3 4.3 3 6 C2.01 5.67 1.02 5.34 0 5 C-0.33 4.01 -0.66 3.02 -1 2 C-0.67 1.34 -0.34 0.68 0 0 Z " fill="#3D3D3D" transform="translate(335,150)"/>
<path d="M0 0 C6.52307692 -0.36923077 6.52307692 -0.36923077 8.9375 1.5 C9.288125 1.995 9.63875 2.49 10 3 C9.01 3.33 8.02 3.66 7 4 C6.34 3.67 5.68 3.34 5 3 C5 2.34 5 1.68 5 1 C3.35 1 1.7 1 0 1 C0 0.67 0 0.34 0 0 Z " fill="#535355" transform="translate(426,422)"/>
<path d="M0 0 C0.8125 1.6875 0.8125 1.6875 1 4 C-1.4375 6.75 -1.4375 6.75 -4 9 C-2.94124926 5.59687262 -1.99097846 2.98646769 0 0 Z " fill="#545454" transform="translate(369,240)"/>
</svg>
